<?xml version="1.0" standalone="no"?>
<!DOCTYPE svg PUBLIC "-//W3C//DTD SVG 1.1//EN" "http://www.w3.org/Graphics/SVG/1.1/DTD/svg11.dtd" >
<svg>
<metadata>
Created by FontForge 20110222 at Sat Feb 14 06:21:39 2015
 By deploy user
Original version of Priori copyright (C) 2006 Emigre Inc. Designed by Jonathan Barnbrook
Chivas Priori copyright (c) 2012 Emigre Inc. Designed by Barnbrook Ltd
This font should not be used without express permission of Chivas Brothers Ltd and only under the licensing terms of Emigre Inc.
See Chivas branding website for full licensing details
</metadata>
<defs>
<font id="ChivasPrioriBold" horiz-adv-x="540" >
  <font-face 
    font-family="Chivas Priori Bold"
    font-weight="700"
    font-stretch="normal"
    units-per-em="1000"
    panose-1="2 0 6 3 8 0 0 2 0 3"
    ascent="710"
    descent="-290"
    x-height="352"
    cap-height="568"
    bbox="-199 -265 997 796"
    underline-thickness="56"
    underline-position="-129"
    unicode-range="U+0020-FB06"
  />
<missing-glyph horiz-adv-x="500" 
 />
    <glyph glyph-name="f_f" unicode="ff" horiz-adv-x="553" 
d="M162 271v-271h-100v271h-63l17 82h46v44q0 87 57 137.5t134 50.5q69 0 132 -50q44 50 114 50t119 -53l-59 -59q-20 28 -50 28q-27 0 -44.5 -18.5t-17.5 -51.5v-78h120l-17 -82h-103v-271h-100v271h-185zM348 453q-45 48 -95 48q-39 0 -65 -28.5t-26 -76.5v-43h185v72
q0 20 1 28z" />
    <glyph glyph-name="f_i" unicode="fi" horiz-adv-x="514" 
d="M449 353v-353h-103v271h-184v-271h-100v271h-63l17 82h46v72q0 74 44.5 117t107.5 43q70 0 119 -53l-59 -59q-20 28 -50 28q-27 0 -44.5 -18.5t-17.5 -51.5v-78h287z" />
    <glyph glyph-name="f_l" unicode="fl" horiz-adv-x="536" 
d="M531 97v-77q-44 -31 -96 -31q-43 0 -70 31.5t-27 92.5v158h-176v-271h-100v271h-63l17 82h46v44q0 87 58 137.5t135 50.5q54 0 104 -28t79 -58v-383q0 -22 11 -31.5t26 -9.5q21 0 56 22zM338 353v111q-11 12 -34 24.5t-49 12.5q-39 0 -66 -28.5t-27 -76.5v-43h176z" />
    <glyph glyph-name="f_f_i" unicode="ffi" horiz-adv-x="815" 
d="M363 510q-46 49 -96 49q-39 0 -65 -28.5t-26 -76.5v-101h185v130q0 11 2 27zM750 353v-353h-100v271h-189v-271h-100v271h-185v-271h-100v271h-63l17 82h46v102q0 87 57 137.5t134 50.5q69 0 132 -50q44 50 114 50q72 0 129 -63l-56 -56l-19 19t-18 11.5t-26 6.5
q-25 0 -43.5 -19t-18.5 -51v-138h289z" />
    <glyph glyph-name="f_f_l" unicode="ffl" horiz-adv-x="792" 
d="M367 506q-48 53 -100 53q-39 0 -65 -28.5t-26 -76.5v-101h185v102q0 29 6 51zM637 353v170q-39 36 -82 36q-40 0 -67 -28.5t-27 -76.5v-101h176zM637 271h-176v-271h-100v271h-185v-271h-100v271h-63l17 82h46v102q0 87 57 137.5t134 50.5q75 0 143 -59q56 59 144 59
q95 0 183 -85v-558h-100v271z" />
    <glyph glyph-name=".notdef" horiz-adv-x="500" 
 />
    <glyph glyph-name=".null" horiz-adv-x="0" 
 />
    <glyph glyph-name="nonmarkingreturn" horiz-adv-x="333" 
 />
    <glyph glyph-name="space" unicode=" " horiz-adv-x="180" 
 />
    <glyph glyph-name="exclam" unicode="!" horiz-adv-x="308" 
d="M219 568l-36 -384h-58l-36 384h130zM232 61l-78 -78l-78 78l78 78z" />
    <glyph glyph-name="quotedbl" unicode="&#x22;" horiz-adv-x="349" 
d="M309 568l-28 -199h-49l-28 199h105zM145 568l-28 -199h-49l-28 199h105z" />
    <glyph glyph-name="numbersign" unicode="#" horiz-adv-x="598" 
d="M573 414l-14 -69h-128l-27 -122h126l-14 -69h-128l-34 -154h-73l35 154h-93l-34 -154h-73l35 154h-126l15 69h126l28 122h-126l15 69h126l35 154h73l-35 -154h92l35 154h73l-35 -154h126zM359 345h-93l-27 -122h92z" />
    <glyph glyph-name="dollar" unicode="$" horiz-adv-x="476" 
d="M416 145q0 -66 -45.5 -108.5t-112.5 -50.5v-94h-40v93q-72 3 -154 43v111q93 -50 154 -56v157l-54 35q-104 65 -104 153q0 69 45.5 110.5t112.5 48.5v87h40v-86q41 -3 78 -15q24 -8 51 -23v-109q-76 45 -129 48v-152q69 -42 96 -65q62 -55 62 -127zM218 362v126
q-26 -6 -41 -21.5t-15 -34.5q0 -34 56 -70zM313 144q0 33 -55 71v-131q55 11 55 60z" />
    <glyph glyph-name="percent" unicode="%" horiz-adv-x="567" 
d="M272 470q0 -48 -35 -81.5t-86 -33.5t-86 33.5t-35 81.5t35 81.5t86 33.5t86 -33.5t35 -81.5zM435 585l-256 -602h-46l255 602h47zM537 102q0 -48 -35 -81t-86 -33t-86 33.5t-35 80.5q0 49 34.5 82.5t86.5 33.5t86.5 -33.5t34.5 -82.5zM208 470q0 23 -16 38t-41 15
t-40.5 -15t-15.5 -38q0 -22 16 -37.5t40 -15.5t40.5 15.5t16.5 37.5zM473 102q0 23 -16 38.5t-41 15.5t-40.5 -15.5t-15.5 -38.5q0 -22 16 -37t40 -15q25 0 41 15t16 37z" />
    <glyph glyph-name="ampersand" unicode="&#x26;" horiz-adv-x="634" 
d="M250 -27q-94 0 -147.5 50t-53.5 131q0 64 34.5 112t89.5 76q-56 70 -56 130q0 50 38.5 88t101.5 38q60 0 96.5 -36t36.5 -91q0 -42 -29 -79t-70 -54l128 -151q21 54 29 131h87q-13 -115 -58 -199l23 -27q19 -23 41 -23q27 0 38 28l48 -48q-11 -31 -38.5 -47.5
t-61.5 -16.5q-61 0 -97 43l-11 13q-71 -68 -169 -68zM147 162q0 -44 28.5 -72t77.5 -28q68 0 114 43l-147 180q-34 -16 -53.5 -50.5t-19.5 -72.5zM301 468q0 22 -12.5 36.5t-31.5 14.5q-21 0 -33.5 -13t-12.5 -36q0 -33 39 -83q23 13 37 35.5t14 45.5z" />
    <glyph glyph-name="quotesingle" unicode="'" horiz-adv-x="185" 
d="M145 568l-28 -199h-49l-28 199h105z" />
    <glyph glyph-name="parenleft" unicode="(" horiz-adv-x="368" 
d="M348 -108l-64 -64q-104 85 -164 190t-60 220q0 116 59.5 220t162.5 190l65 -65q-180 -155 -180 -345q0 -188 181 -346z" />
    <glyph glyph-name="parenright" unicode=")" horiz-adv-x="368" 
d="M308 238q0 -115 -60 -220t-164 -190l-64 64q181 156 181 346q0 189 -179 345l64 65q103 -86 162.5 -190t59.5 -220z" />
    <glyph glyph-name="asterisk" unicode="*" horiz-adv-x="437" 
d="M397 416l-161 -18l121 -112l-69 -50l-69 149l-68 -149l-69 50l120 112l-162 18l26 81l142 -79l-32 160h86l-32 -160l141 79z" />
    <glyph glyph-name="plus" unicode="+" horiz-adv-x="608" 
d="M558 221h-220v-221h-68v221h-220v68h220v219h68v-219h220v-68z" />
    <glyph glyph-name="comma" unicode="," horiz-adv-x="250" 
d="M203 0q0 -37 -15 -68t-33 -48.5t-43.5 -31.5t-37 -18t-23.5 -7v20q65 41 65 112q0 24 -17 51t-35 42l-17 15l71 72l22 -18q63 -54 63 -121z" />
    <glyph glyph-name="hyphen" unicode="-" horiz-adv-x="275" 
d="M225 174h-175v68h175v-68z" />
    <glyph glyph-name="period" unicode="." horiz-adv-x="250" 
d="M203 61l-78 -78l-78 78l78 78z" />
    <glyph glyph-name="slash" unicode="/" horiz-adv-x="363" 
d="M353 595l-282 -607h-61l283 607h60z" />
    <glyph glyph-name="zero" unicode="0" horiz-adv-x="508" 
d="M458 283q0 -74 -21 -140.5t-69 -113t-113 -46.5q-66 0 -114 46.5t-69.5 113t-21.5 140.5t21.5 141t69.5 114t114 47q65 0 113 -47t69 -114t21 -141zM353 283q0 86 -28.5 144t-69.5 58t-70.5 -58.5t-29.5 -143.5t29.5 -143t70.5 -58t69.5 57.5t28.5 143.5z" />
    <glyph glyph-name="one" unicode="1" horiz-adv-x="276" 
d="M192 0h-108v557l108 32v-589z" />
    <glyph glyph-name="two" unicode="2" horiz-adv-x="472" 
d="M422 0h-383v46l186 203q88 95 88 154q0 40 -24.5 64t-64.5 24q-39 0 -65.5 -26t-30.5 -76h-98q4 89 60 143.5t135 54.5q84 0 139 -51t55 -133q0 -91 -108 -206q-64 -68 -101 -103h212v-94z" />
    <glyph glyph-name="three" unicode="3" horiz-adv-x="448" 
d="M398 182q0 -88 -60.5 -143t-143.5 -55q-105 0 -174 69l62 77q1 -1 8.5 -7t13 -10.5t16 -11t20 -10.5t23 -7t27.5 -3q40 0 69.5 27t29.5 73q0 40 -26.5 63t-63.5 23q-19 0 -61 -17l-43 59q64 35 107.5 71.5t67.5 89.5h-225v98h342v-55q-15 -103 -93 -176
q43 -20 73.5 -57.5t30.5 -97.5z" />
    <glyph glyph-name="four" unicode="4" horiz-adv-x="467" 
d="M447 140h-80v-140h-107v140h-232l-18 46l268 382h89v-334h80v-94zM260 234v194l-47 -73l-83 -121h130z" />
    <glyph glyph-name="five" unicode="5" horiz-adv-x="466" 
d="M416 183q0 -83 -63 -141.5t-152 -58.5q-90 0 -168 53q-16 12 -18 14l61 77l17 -13q51 -37 98 -37q48 0 78.5 32.5t30.5 73.5t-31 74t-78 33q-41 0 -80 -26l-43 11l20 293h306v-96h-220l-7 -95q23 5 44 5q88 0 146.5 -58t58.5 -141z" />
    <glyph glyph-name="six" unicode="6" horiz-adv-x="517" 
d="M467 497q-187 -30 -264 -135q37 5 48 5q82 0 145 -52.5t63 -140.5q0 -79 -59 -135t-140 -56q-101 0 -155.5 67.5t-54.5 158.5q0 151 118.5 254.5t298.5 117.5v-84zM358 174q0 43 -32 75.5t-84 32.5q-45 0 -82 -17q-7 -21 -7 -54q0 -60 28.5 -98t81.5 -38q40 0 67.5 30
t27.5 69z" />
    <glyph glyph-name="seven" unicode="7" horiz-adv-x="427" 
d="M407 530l-233 -530h-114l217 474h-257v94h363z" />
    <glyph glyph-name="eight" unicode="8" horiz-adv-x="473" 
d="M423 148q0 -70 -54.5 -117.5t-132.5 -47.5t-132 47t-54 116q0 89 98 152q-90 57 -90 138q0 64 52.5 106.5t126.5 42.5t126 -42t52 -106q0 -79 -89 -136q97 -63 97 -153zM311 429q0 25 -19.5 43.5t-55.5 18.5q-35 0 -54.5 -18t-19.5 -41q0 -43 78 -90q71 47 71 87z
M319 153q0 28 -24 56.5t-61 50.5q-79 -51 -79 -105q0 -32 22.5 -55t59.5 -23q36 0 59 22.5t23 53.5z" />
    <glyph glyph-name="nine" unicode="9" horiz-adv-x="517" 
d="M467 359q0 -151 -118.5 -254.5t-298.5 -117.5v84q187 30 264 135q-38 -5 -48 -5q-82 0 -145 52.5t-63 140.5q0 79 59 135t140 56q101 0 155.5 -67.5t54.5 -158.5zM364 357q0 60 -28.5 98t-81.5 38q-40 0 -67.5 -30t-27.5 -69q0 -43 32 -75.5t84 -32.5q45 0 82 17
q7 21 7 54z" />
    <glyph glyph-name="colon" unicode=":" horiz-adv-x="250" 
d="M203 290l-78 -77l-78 77l78 78zM203 61l-78 -78l-78 78l78 78z" />
    <glyph glyph-name="semicolon" unicode=";" horiz-adv-x="250" 
d="M203 290l-78 -77l-78 77l78 78zM210 0q0 -37 -15 -68t-33 -48.5t-43.5 -31.5t-37 -18t-23.5 -7v20q65 41 65 112q0 24 -17.5 51t-34.5 42l-17 15l71 72l22 -18q63 -54 63 -121z" />
    <glyph glyph-name="less" unicode="&#x3c;" horiz-adv-x="403" 
d="M363 139v-98l-323 182v61l323 182v-97l-214 -115z" />
    <glyph glyph-name="equal" unicode="=" horiz-adv-x="515" 
d="M465 293h-415v68h415v-68zM465 149h-415v68h415v-68z" />
    <glyph glyph-name="greater" unicode="&#x3e;" horiz-adv-x="403" 
d="M363 223l-323 -182v98l214 115l-214 115v97l323 -182v-61z" />
    <glyph glyph-name="question" unicode="?" horiz-adv-x="405" 
d="M375 415q0 -76 -55.5 -128t-133.5 -74l-9 -29h-64l-20 88q29 7 54.5 16t55.5 25.5t48 42.5t18 58q0 36 -28 59t-75 23q-60 0 -116 -26v94q47 21 120 21q87 0 146 -45.5t59 -124.5zM225 62l-78 -78l-78 78l78 78z" />
    <glyph glyph-name="at" unicode="@" horiz-adv-x="811" 
d="M412 -2q-71 0 -119 48.5t-48 125.5q0 80 50.5 131t124.5 51q54 0 93 -33l16 24h43v-251q115 34 115 177q0 101 -69.5 166.5t-180.5 65.5q-130 0 -216 -95t-86 -236q0 -134 79 -217t212 -83q138 0 226 83l44 -57q-109 -99 -270 -99q-165 0 -269.5 104.5t-104.5 269.5
q0 174 110.5 289t273.5 115q142 0 235 -86.5t93 -219.5q0 -117 -61.5 -181t-150.5 -74h-20l-19 24q-40 -42 -101 -42zM417 67q43 0 77 22v181q-32 15 -70 15q-43 0 -71 -30.5t-28 -81.5q0 -48 25 -77t67 -29z" />
    <glyph glyph-name="A" unicode="A" horiz-adv-x="553" 
d="M543 0h-115l-57 160h-192l-57 -160h-112l220 568h93zM342 243l-67 189l-67 -189h134z" />
    <glyph glyph-name="B" unicode="B" horiz-adv-x="520" 
d="M478 161q0 -74 -53.5 -117.5t-135.5 -43.5h-215v568h190q89 0 138.5 -45.5t49.5 -110.5t-60 -111q42 -23 64 -60.5t22 -79.5zM365 172q0 35 -27 58t-75 23h-81v-161h86q43 0 70 21.5t27 58.5zM340 403q0 75 -95 75h-63v-143h98q60 0 60 68z" />
    <glyph glyph-name="C" unicode="C" horiz-adv-x="607" 
d="M565 23q-95 -40 -203 -40q-129 0 -224.5 85.5t-95.5 214.5t95 215.5t225 86.5q106 0 203 -39v-107q-102 51 -190 51t-152 -58.5t-64 -147.5q0 -88 61 -146.5t147 -58.5q28 0 55.5 4t51.5 11t39 12.5t33 13.5t19 8v-105z" />
    <glyph glyph-name="D" unicode="D" horiz-adv-x="632" 
d="M590 282q0 -132 -96 -207t-230 -75h-190v568h185q134 0 232.5 -77.5t98.5 -208.5zM478 282q0 85 -61.5 138t-154.5 53h-80v-376h84q94 0 153 50t59 135z" />
    <glyph glyph-name="E" unicode="E" horiz-adv-x="473" 
d="M431 0h-357v568h344v-95h-236v-139h176v-94h-176v-145h249v-95z" />
    <glyph glyph-name="F" unicode="F" horiz-adv-x="433" 
d="M398 473h-216v-139h171v-94h-171v-240h-108v568h324v-95z" />
    <glyph glyph-name="G" unicode="G" horiz-adv-x="629" 
d="M565 23q-95 -40 -203 -40q-129 0 -224.5 85.5t-95.5 214.5t95 215.5t225 86.5q106 0 203 -39v-107q-106 51 -190 51q-88 0 -152 -58.5t-64 -147.5q0 -88 61 -146.5t147 -58.5q43 0 90 11v182h108v-249z" />
    <glyph glyph-name="H" unicode="H" horiz-adv-x="627" 
d="M553 0h-108v240h-263v-240h-108v568h108v-235h263v235h108v-568z" />
    <glyph glyph-name="I" unicode="I" horiz-adv-x="266" 
d="M187 0h-108v568h108v-568z" />
    <glyph glyph-name="J" unicode="J" horiz-adv-x="337" 
d="M266 568v-439q0 -146 -154 -146q-54 0 -101 28l12 93q38 -26 86 -26q49 0 49 55v435h108z" />
    <glyph glyph-name="K" unicode="K" horiz-adv-x="574" 
d="M541 568l-227 -227l159 -235q23 -35 50 -35q24 0 40 20l38 -39q-39 -62 -107 -62q-43 0 -69 18t-57 64l-130 193l-56 -56v-209h-108v568h108v-237l235 237h124z" />
    <glyph glyph-name="L" unicode="L" horiz-adv-x="482" 
d="M472 0h-398v568h108v-474h290v-94z" />
    <glyph glyph-name="M" unicode="M" horiz-adv-x="755" 
d="M681 0h-104v320l-159 -320h-81l-159 320v-320h-104v568h85l218 -437l219 437h85v-568z" />
    <glyph glyph-name="N" unicode="N" horiz-adv-x="638" 
d="M564 0h-108v120l-274 274v-394h-108v568h72l310 -310v310h108v-568z" />
    <glyph glyph-name="O" unicode="O" horiz-adv-x="723" 
d="M681 284q0 -126 -91.5 -213.5t-228.5 -87.5q-136 0 -227.5 87.5t-91.5 213.5t91.5 213.5t227.5 87.5q137 0 228.5 -87.5t91.5 -213.5zM570 284q0 86 -60 146t-149 60t-148.5 -60t-59.5 -146t59.5 -146t148.5 -60t149 60t60 146z" />
    <glyph glyph-name="P" unicode="P" horiz-adv-x="478" 
d="M453 398q0 -58 -34.5 -98.5t-83 -57t-103.5 -16.5h-50v-226h-108v568h172q93 0 150 -46t57 -124zM338 398q0 76 -91 76h-65v-157h58q39 0 68.5 19.5t29.5 61.5z" />
    <glyph glyph-name="Q" unicode="Q" horiz-adv-x="723" 
d="M670 -164q-95 0 -198 40.5t-172 109.5q-113 20 -185.5 103t-72.5 195q0 126 91.5 213.5t227.5 87.5q137 0 228.5 -87.5t91.5 -213.5q0 -106 -67 -188t-172 -107q115 -63 236 -63q43 0 83 10l-8 -90q-27 -10 -83 -10zM570 284q0 86 -60 146t-149 60t-148.5 -60t-59.5 -146
q0 -87 60 -148t148 -61q89 0 149 61t60 148z" />
    <glyph glyph-name="R" unicode="R" horiz-adv-x="531" 
d="M541 56q-40 -66 -107 -66q-43 0 -70.5 18t-57.5 64l-95 145h-29v-217h-108v568h169q96 0 150 -45t54 -122q0 -102 -121 -169l87 -126q23 -35 50 -35q18 0 40 24zM339 393q0 80 -96 80h-61v-168h48q45 0 77 25t32 63z" />
    <glyph glyph-name="S" unicode="S" horiz-adv-x="465" 
d="M423 147q0 -76 -58.5 -120t-145.5 -44q-21 0 -42 3t-36.5 7t-33.5 10.5t-27 10.5t-22.5 10.5t-15.5 7.5v105q110 -57 175 -57q46 0 72 19t26 45q0 31 -59 68l-92 56q-27 17 -43 29t-35 32t-28 45t-9 56q0 72 54 113.5t132 41.5q76 0 155 -37v-101q-86 43 -155 43
q-36 0 -57 -18t-21 -42q0 -32 60 -68l92 -57q22 -13 36.5 -24t35 -31t31.5 -46t11 -57z" />
    <glyph glyph-name="T" unicode="T" horiz-adv-x="529" 
d="M519 474h-200v-474h-109v474h-200v94h509v-94z" />
    <glyph glyph-name="U" unicode="U" horiz-adv-x="610" 
d="M305 -15q-111 0 -173.5 57t-62.5 155v371h108v-355q0 -63 34 -98t94 -35t94 35t34 98v355h108v-371q0 -98 -62.5 -155t-173.5 -57z" />
    <glyph glyph-name="V" unicode="V" horiz-adv-x="533" 
d="M523 568l-210 -568h-94l-209 568h116l140 -405l140 405h117z" />
    <glyph glyph-name="W" unicode="W" horiz-adv-x="770" 
d="M553 568l-117 -288l51 -130l159 418h112l-227 -568h-73l-73 181l-73 -181h-73l-227 568h112l159 -418l51 130l-117 288h105l63 -172l63 172h105z" />
    <glyph glyph-name="X" unicode="X" horiz-adv-x="547" 
d="M532 0h-131l-127 197l-127 -197h-132l200 286l-198 282h132l125 -194l125 194h131l-198 -282z" />
    <glyph glyph-name="Y" unicode="Y" horiz-adv-x="498" 
d="M249 329l121 239h120l-187 -343v-225h-108v226l-187 342h120z" />
    <glyph glyph-name="Z" unicode="Z" horiz-adv-x="541" 
d="M521 0h-501v54l337 423h-323v90h480v-55l-336 -420h343v-92z" />
    <glyph glyph-name="bracketleft" unicode="[" horiz-adv-x="303" 
d="M263 -140h-193v773h193v-86h-86v-601h86v-86z" />
    <glyph glyph-name="backslash" unicode="\" horiz-adv-x="283" 
d="M313 -12h-61l-282 607h60z" />
    <glyph glyph-name="bracketright" unicode="]" horiz-adv-x="303" 
d="M233 -140h-193v86h86v601h-86v86h193v-773z" />
    <glyph glyph-name="asciicircum" unicode="^" horiz-adv-x="508" 
d="M468 324h-107l-107 209l-107 -209h-107l186 351h56z" />
    <glyph glyph-name="underscore" unicode="_" horiz-adv-x="500" 
d="M500 -52h-500v52h500v-52z" />
    <glyph glyph-name="grave" unicode="`" horiz-adv-x="333" 
d="M192 407l-112 185h102l71 -185h-61z" />
    <glyph glyph-name="a" unicode="a" horiz-adv-x="391" 
d="M262 0l-15 26q-36 -36 -99 -36q-49 0 -81 25t-32 77q0 95 127 126l76 19q-2 18 -17.5 29.5t-41.5 11.5q-74 0 -121 -49v87q43 48 127 48q67 0 109 -36.5t42 -96.5v-231h-74zM176 66q33 0 63 22v85l-58 -15q-50 -13 -50 -52q0 -40 45 -40z" />
    <glyph glyph-name="b" unicode="b" horiz-adv-x="459" 
d="M429 178q0 -79 -52.5 -134t-127.5 -55q-61 0 -112 38l-11 -30l-71 3v568h100v-232q42 28 94 28q75 0 127.5 -54t52.5 -132zM329 178q0 42 -28 71.5t-70 29.5q-44 0 -76 -26v-153q31 -26 70 -26q44 0 74 30t30 74z" />
    <glyph glyph-name="c" unicode="c" horiz-adv-x="390" 
d="M355 24q-66 -35 -128 -35q-83 0 -140 52.5t-57 133.5t56.5 134.5t140.5 53.5q62 0 126 -34v-85q-68 32 -109 32q-52 0 -83 -28t-31 -72q0 -43 31.5 -70.5t82.5 -27.5q45 0 111 33v-87z" />
    <glyph glyph-name="d" unicode="d" horiz-adv-x="458" 
d="M403 1l-92 -3l-6 25q-36 -34 -103 -34q-70 0 -121 46.5t-51 143.5q0 77 51 131t126 54q61 0 96 -28v232h100v-567zM303 248q-31 31 -76 31q-42 0 -69.5 -30t-27.5 -72q0 -45 22.5 -74.5t67.5 -29.5q24 0 47 11t36 29v135z" />
    <glyph glyph-name="e" unicode="e" horiz-adv-x="414" 
d="M367 150h-237q9 -34 38 -57.5t69 -23.5q15 0 30.5 2t27 4.5t23.5 6.5t19 6.5t15.5 6t9.5 4.5v-79q-57 -31 -135 -31t-137.5 51.5t-59.5 135.5q0 78 53.5 133t126.5 55q68 0 112.5 -47t44.5 -120v-47zM277 213q0 28 -18 50.5t-48 22.5t-51.5 -21t-26.5 -52h144z" />
    <glyph glyph-name="f" unicode="f" horiz-adv-x="268" 
d="M333 532l-59 -59q-20 28 -50 28q-27 0 -44.5 -18.5t-17.5 -51.5v-78h120l-17 -82h-103v-271h-100v271h-63l17 82h46v72q0 74 44.5 117t107.5 43q70 0 119 -53z" />
    <glyph glyph-name="g" unicode="g" horiz-adv-x="408" 
d="M409 275h-66q16 -32 16 -68q0 -68 -48 -112.5t-117 -44.5q-20 0 -29 2l-20 -29l122 -36q48 -14 76 -45.5t28 -77.5q0 -52 -50.5 -90.5t-131.5 -38.5q-70 0 -119.5 36.5t-49.5 94.5q0 53 49 93l-51 17l78 103q-67 46 -67 128q0 68 48 112.5t117 44.5q63 0 108 -37l20 26
h87v-78zM267 207q0 32 -21 52.5t-52 20.5t-52.5 -20.5t-21.5 -52.5t21.5 -52.5t52.5 -20.5t52 20.5t21 52.5zM279 -136q0 33 -32 42l-100 31q-40 -25 -40 -60q0 -27 26 -46t60 -19q38 0 62 16t24 36z" />
    <glyph glyph-name="h" unicode="h" horiz-adv-x="451" 
d="M396 0h-100v216q0 30 -16.5 46t-43.5 16q-22 0 -46 -14t-35 -25v-239h-100v568h100v-246q46 42 111 42q58 0 94 -37.5t36 -108.5v-218z" />
    <glyph glyph-name="i" unicode="i" horiz-adv-x="230" 
d="M165 0h-100v353h100v-353zM180 486l-65 -65l-66 66l65 65z" />
    <glyph glyph-name="j" unicode="j" horiz-adv-x="230" 
d="M-6 -248l-26 91q44 5 70.5 26.5t26.5 58.5v425h100v-447q0 -66 -48 -108.5t-123 -45.5zM180 486l-65 -65l-66 66l65 65z" />
    <glyph glyph-name="k" unicode="k" horiz-adv-x="411" 
d="M411 50q-13 -60 -76 -60q-50 0 -81 46l-70 103l-29 -29v-110h-100v568h100v-349l130 134h113l-150 -150l80 -122q13 -20 29 -20q15 0 19 14z" />
    <glyph glyph-name="l" unicode="l" horiz-adv-x="253" 
d="M248 95v-77q-27 -29 -87 -29q-48 0 -77 31t-29 91v457h100v-452q0 -41 40 -41q29 0 53 20z" />
    <glyph glyph-name="m" unicode="m" horiz-adv-x="664" 
d="M609 0h-100v221q0 28 -15 42.5t-39 14.5q-36 0 -73 -35v-243h-100v221q0 28 -15 42.5t-39 14.5q-36 0 -73 -35v-243h-100v353h95l6 -28q43 39 105 39q73 0 104 -59l20 20q39 39 104 39q55 0 87.5 -36.5t32.5 -107.5v-220z" />
    <glyph glyph-name="n" unicode="n" horiz-adv-x="451" 
d="M396 0h-100v216q0 30 -16.5 46t-43.5 16q-39 0 -81 -39v-239h-100v353h96l5 -30q44 41 110 41q59 0 94.5 -38.5t35.5 -112.5v-213z" />
    <glyph glyph-name="o" unicode="o" horiz-adv-x="457" 
d="M427 176q0 -79 -58 -133t-140 -54q-83 0 -141 54t-58 133t58 133.5t141 54.5q82 0 140 -54.5t58 -133.5zM327 176q0 44 -29 74.5t-69 30.5q-41 0 -70 -30t-29 -75q0 -44 29 -74t70 -30q40 0 69 30t29 74z" />
    <glyph glyph-name="p" unicode="p" horiz-adv-x="458" 
d="M428 179q0 -87 -50.5 -138.5t-127.5 -51.5q-52 0 -95 28v-244h-100v582h87l8 -34q39 44 107 44q69 0 120 -48.5t51 -137.5zM328 179q0 47 -28 74t-68 27q-52 0 -77 -40v-137q31 -29 79 -29q43 0 68.5 30t25.5 75z" />
    <glyph glyph-name="q" unicode="q" horiz-adv-x="459" 
d="M30 177q0 77 54.5 132t131.5 55q63 0 106 -40l7 31h75v-582h-100v244q-42 -28 -94 -28q-74 0 -127 55t-53 133zM130 177q0 -43 30 -73t74 -30q40 0 70 25v154q-31 26 -73 26t-71.5 -29.5t-29.5 -72.5z" />
    <glyph glyph-name="r" unicode="r" horiz-adv-x="287" 
d="M287 269q-28 8 -56 8q-39 0 -76 -33v-244h-100v353h95l5 -37q36 48 89 48q13 0 43 -5v-90z" />
    <glyph glyph-name="s" unicode="s" horiz-adv-x="321" 
d="M286 100q0 -53 -40 -82t-95 -29q-47 0 -113 24v89q73 -32 111 -32q44 0 44 25q0 16 -36 34q-68 35 -89 54q-33 31 -33 71q0 52 37.5 81t92.5 29q56 0 110 -25v-83q-59 28 -105 28q-43 0 -43 -24q0 -16 34 -32q70 -34 91 -53q34 -31 34 -75z" />
    <glyph glyph-name="t" unicode="t" horiz-adv-x="300" 
d="M280 8q-46 -19 -88 -19q-57 0 -92 36.5t-35 119.5v126h-66l17 82h49v139h100v-139h113l-17 -82h-96v-127q0 -69 63 -69q25 0 52 12v-79z" />
    <glyph glyph-name="u" unicode="u" horiz-adv-x="441" 
d="M386 0h-92l-6 23q-39 -34 -108 -34q-54 0 -89.5 38.5t-35.5 112.5v213h100v-216q0 -30 16.5 -46t43.5 -16q31 0 71 30v248h100v-353z" />
    <glyph glyph-name="v" unicode="v" horiz-adv-x="366" 
d="M361 353l-128 -353h-100l-128 353h99l79 -240l79 240h99z" />
    <glyph glyph-name="w" unicode="w" horiz-adv-x="558" 
d="M339 0l-60 161q-1 -11 -5 -21l-51 -140h-81l-138 353h98l82 -239l55 156l-30 83h98l70 -226l75 226h102l-137 -353h-78z" />
    <glyph glyph-name="x" unicode="x" horiz-adv-x="353" 
d="M348 353l-119 -177l119 -176h-112l-59 102l-60 -102h-112l119 176l-119 177h112l60 -102l59 102h112z" />
    <glyph glyph-name="y" unicode="y" horiz-adv-x="366" 
d="M361 353l-133 -353l-82 -227h-96l83 227l-128 353h99l79 -240l79 240h99z" />
    <glyph glyph-name="z" unicode="z" horiz-adv-x="335" 
d="M310 79v-79h-285v46l155 228h-151v78h277v-45l-154 -228h158z" />
    <glyph glyph-name="braceleft" unicode="{" horiz-adv-x="340" 
d="M320 -131l-10 -82q-91 12 -146 55.5t-55 120.5q0 30 9.5 89t9.5 88q0 64 -99 82q-3 1 -4 1v56q1 0 8.5 1.5t11.5 2.5t13 3.5t14 4.5t13.5 6t13.5 8t11 10t9.5 13t6 16t2.5 19q0 29 -9.5 87.5t-9.5 88.5q0 77 55 121t146 55l10 -82q-109 -16 -109 -83q0 -30 10 -87.5
t10 -87.5q0 -51 -33.5 -84t-63.5 -41q33 -9 65 -39.5t32 -82.5q0 -30 -10 -87.5t-10 -88.5q0 -67 109 -83z" />
    <glyph glyph-name="bar" unicode="|" horiz-adv-x="264" 
d="M159 -190h-54v900h54v-900z" />
    <glyph glyph-name="braceright" unicode="}" horiz-adv-x="340" 
d="M315 223q-104 -19 -104 -83q0 -29 10 -88t10 -89q0 -77 -55 -120.5t-146 -55.5l-10 82q108 16 108 83q0 30 -9.5 88t-9.5 88q0 52 31.5 82t65.5 40q-30 6 -63.5 40t-33.5 85q0 30 9.5 87.5t9.5 87.5q0 67 -108 83l10 82q90 -11 145.5 -55t55.5 -121q0 -30 -10 -88.5
t-10 -87.5q0 -65 99 -83q3 -1 5 -1v-56z" />
    <glyph glyph-name="asciitilde" unicode="~" horiz-adv-x="593" 
d="M558 324q-4 -65 -40 -106t-108 -41q-50 0 -128 36t-102 36q-27 0 -49 -17.5t-25 -53.5h-71q4 65 41 106.5t108 41.5q50 0 127.5 -36t102.5 -36q26 0 48 17t26 53h70z" />
    <glyph glyph-name="nbspace" unicode="&#xa0;" horiz-adv-x="180" 
 />
    <glyph glyph-name="exclamdown" unicode="&#xa1;" horiz-adv-x="308" 
d="M232 275l-78 -78l-78 78l78 78zM222 -232h-136l36 384h64z" />
    <glyph glyph-name="cent" unicode="&#xa2;" horiz-adv-x="415" 
d="M370 131q-56 -28 -98 -32v-99h-40v97q-81 4 -134 55.5t-53 130.5q0 78 53 130.5t134 56.5v98h40v-100q46 -6 96 -31v-87q-62 29 -96 31v-193q37 3 98 32v-89zM232 190v189q-40 -7 -63 -33t-23 -62t23 -61.5t63 -32.5z" />
    <glyph glyph-name="sterling" unicode="&#xa3;" horiz-adv-x="466" 
d="M431 0h-401v95h62v120h-62v90h62v80q0 83 51 141.5t136 58.5q77 0 137 -33v-94q-73 34 -122 34q-39 0 -66 -30t-27 -77v-80h157v-90h-157v-120h230v-95z" />
    <glyph glyph-name="currency" unicode="&#xa4;" horiz-adv-x="503" 
d="M415 50l-59 70q-47 -30 -104 -30q-59 0 -106 30l-58 -70l-51 53l66 56q-37 47 -37 106q0 58 34 103l-63 54l51 53l55 -67q47 33 109 33q59 0 108 -33l55 67l51 -53l-64 -54q36 -45 36 -103q0 -59 -39 -106l67 -56zM354 265q0 42 -30 71.5t-72 29.5t-72 -29.5t-30 -71.5
q0 -41 30 -70.5t72 -29.5t72 29.5t30 70.5z" />
    <glyph glyph-name="yen" unicode="&#xa5;" horiz-adv-x="498" 
d="M301 184h135v-73h-135v-111h-104v111h-135v73h135v38h-135v73h97l-149 273h120l119 -239l121 239h118l-149 -273h97v-73h-135v-38z" />
    <glyph glyph-name="brokenbar" unicode="&#xa6;" horiz-adv-x="264" 
d="M159 330h-54v380h54v-380zM159 -190h-54v391h54v-391z" />
    <glyph glyph-name="section" unicode="&#xa7;" horiz-adv-x="387" 
d="M352 168q0 -74 -62 -117q53 -47 53 -114q0 -64 -44 -105.5t-112 -41.5q-65 0 -133 36v98q83 -39 125 -39q30 0 49 15t19 39q0 32 -44 66l-84 61q-84 61 -84 141q0 14 2.5 26.5t5.5 22t8.5 19t10 15.5t11 12.5t10.5 9.5t9 7t6 5q-53 49 -53 114q0 62 40.5 104.5
t107.5 42.5q20 0 38 -2.5t32.5 -7.5t23 -8.5t20.5 -10t13 -7.5v-95q-64 35 -116 35q-28 0 -46.5 -15t-18.5 -38q0 -34 46 -66l83 -61q84 -60 84 -141zM261 161q0 31 -44 62l-59 43q-32 -17 -32 -53q0 -29 46 -63l57 -42q32 19 32 53z" />
    <glyph glyph-name="dieresis" unicode="&#xa8;" horiz-adv-x="333" 
d="M314 490l-66 -65l-65 65l65 66zM150 490l-65 -65l-66 65l66 66z" />
    <glyph glyph-name="copyright" unicode="&#xa9;" horiz-adv-x="661" 
d="M631 284q0 -124 -88.5 -212.5t-212.5 -88.5t-212 88t-88 213q0 124 88 212t212 88q125 0 213 -88t88 -212zM601 284q0 114 -80 194.5t-191 80.5t-190 -80.5t-79 -194.5t79 -195t190 -81t191 81t80 195zM475 119l-11 -5q-11 -5 -20 -8t-24.5 -7.5t-35.5 -6.5t-42 -2
q-84 0 -146 55t-62 139t62 140t146 56q67 0 133 -29v-81q-1 1 -10 5.5t-15.5 7t-18.5 7t-23 7.5t-26.5 5t-31.5 2q-52 0 -89 -33.5t-37 -85.5q0 -51 35.5 -85t85.5 -34q54 0 130 32v-79z" />
    <glyph glyph-name="ordfeminine" unicode="&#xaa;" horiz-adv-x="331" 
d="M130 324q-43 0 -70.5 21t-27.5 64q0 83 112 107l58 12q-1 17 -14 28t-35 11q-62 0 -102 -42v72q35 38 107 38q59 0 92.5 -28t33.5 -78v-199h-63l-11 23q-27 -29 -80 -29zM152 385q26 0 50 22v72l-39 -11q-48 -14 -48 -48q0 -16 10 -25.5t27 -9.5z" />
    <glyph glyph-name="guillemotleft" unicode="&#xab;" horiz-adv-x="432" 
d="M392 432l-116 -176l116 -175h-77l-120 174l121 177h76zM227 432l-116 -176l116 -175h-77l-120 174l121 177h76z" />
    <glyph glyph-name="registered" unicode="&#xae;" horiz-adv-x="481" 
d="M451 375q0 -87 -62 -149t-149 -62t-148.5 62t-61.5 149t61.5 148.5t148.5 61.5t149 -61.5t62 -148.5zM425 375q0 77 -54.5 132t-130.5 55t-130 -55t-54 -132q0 -78 54 -133t130 -55t130.5 55t54.5 133zM362 281q-20 -32 -51 -32q-36 0 -60 37l-37 59h-9v-92h-57v250h79
q45 0 70 -20.5t25 -57.5q0 -47 -48 -71l28 -44q9 -14 23 -16q8 0 16 8zM265 424q0 31 -38 31h-22v-66h17q18 0 30.5 10t12.5 25z" />
    <glyph glyph-name="macron" unicode="&#xaf;" horiz-adv-x="333" 
d="M295 448h-258v72h258v-72z" />
    <glyph glyph-name="degree" unicode="&#xb0;" horiz-adv-x="384" 
d="M334 538q0 -61 -41.5 -100.5t-100.5 -39.5q-60 0 -101 39.5t-41 100.5q0 59 41.5 99.5t100.5 40.5t100.5 -40t41.5 -100zM272 538q0 37 -23 61t-57 24t-57 -24t-23 -61t23 -61t57 -24t57 24t23 61z" />
    <glyph glyph-name="twosuperior" unicode="&#xb2;" horiz-adv-x="315" 
d="M267 412h-221v32l103 109q46 48 46 78q0 19 -11 29.5t-31 10.5q-43 0 -47 -54h-66q3 53 35.5 84.5t78.5 31.5q48 0 79.5 -28.5t31.5 -73.5q0 -48 -60 -113q-4 -5 -22.5 -22.5t-23.5 -22.5h108v-61z" />
    <glyph glyph-name="threesuperior" unicode="&#xb3;" horiz-adv-x="297" 
d="M249 513q0 -49 -34.5 -79.5t-82.5 -30.5q-61 0 -103 42l41 48q33 -28 59 -28q20 0 34.5 13t14.5 34q0 20 -13.5 30.5t-33.5 10.5q-12 0 -32 -10l-30 39q73 39 95 78h-119v63h198v-35q-2 -13 -7.5 -25.5t-13 -23.5t-13 -17.5t-14 -15l-9.5 -9.5q63 -26 63 -84z" />
    <glyph glyph-name="acute" unicode="&#xb4;" horiz-adv-x="333" 
d="M253 592l-112 -185h-61l71 185h102z" />
    <glyph glyph-name="mu" unicode="&#xb5;" horiz-adv-x="441" 
d="M158 -9v-191h-103v553h100v-216q0 -30 16.5 -46t43.5 -16q31 0 71 30v248h100v-353h-92l-6 23q-39 -34 -108 -34q-8 0 -22 2z" />
    <glyph glyph-name="mu" unicode="&#x3bc;" horiz-adv-x="441" 
d="M158 -9v-191h-103v553h100v-216q0 -30 16.5 -46t43.5 -16q31 0 71 30v248h100v-353h-92l-6 23q-39 -34 -108 -34q-8 0 -22 2z" />
    <glyph glyph-name="paragraph" unicode="&#xb6;" horiz-adv-x="459" 
d="M409 -200h-60v713h-48v-104h-115l-26 26l-51 -52l51 -52l24 24h117v-355h-60v193h-43q-78 0 -133 55t-55 132q0 78 59 133t149 55h191v-768z" />
    <glyph glyph-name="middot" unicode="&#xb7;" horiz-adv-x="250" 
d="M203 286l-78 -78l-78 78l78 78z" />
    <glyph glyph-name="cedilla" unicode="&#xb8;" horiz-adv-x="333" 
d="M193 1l-10 -31q26 -3 40.5 -23t14.5 -50q0 -39 -28.5 -63t-66.5 -24q-30 0 -48 10v66q12 -9 36 -9q13 0 22 7t9 19t-9 19t-22 7q-14 0 -27 -5l21 77h68z" />
    <glyph glyph-name="onesuperior" unicode="&#xb9;" horiz-adv-x="205" 
d="M138 412h-71v304l71 21v-325z" />
    <glyph glyph-name="ordmasculine" unicode="&#xba;" horiz-adv-x="383" 
d="M191 563q-29 0 -48.5 -22.5t-19.5 -59.5q0 -36 19.5 -58.5t48.5 -22.5q30 0 49.5 22.5t19.5 58.5q0 37 -19.5 59.5t-49.5 22.5zM191 324q-68 0 -113.5 44.5t-45.5 112.5q0 67 45.5 112.5t113.5 45.5q69 0 114.5 -45t45.5 -113t-45.5 -112.5t-114.5 -44.5z" />
    <glyph glyph-name="guillemotright" unicode="&#xbb;" horiz-adv-x="432" 
d="M402 256l-121 -175h-76l116 175l-116 176h76zM237 256l-121 -175h-76l116 175l-116 176h76z" />
    <glyph glyph-name="onequarter" unicode="&#xbc;" horiz-adv-x="702" 
d="M650 133v-66h-43v-67h-76v67h-124l-15 41l153 208h62v-183h43zM572 579l-416 -587h-40l416 587h40zM196 255h-79v309l79 16v-325zM531 200l-48 -67h48v67z" />
    <glyph glyph-name="onehalf" unicode="&#xbd;" horiz-adv-x="737" 
d="M677 0h-235v27l114 123q37 39 37 65q0 18 -10.5 29t-28.5 11q-16 0 -28.5 -11.5t-16.5 -33.5h-71q4 52 39 82.5t83 30.5q51 0 83.5 -30t32.5 -79q0 -9 -1.5 -18t-5 -17t-7.5 -15t-9.5 -15t-9.5 -13t-10.5 -11.5l-9.5 -9.5t-9 -8.5t-7 -6.5l-35 -34h105v-66zM572 579
l-416 -587h-40l416 587h40zM196 255h-79v309l79 16v-325z" />
    <glyph glyph-name="threequarters" unicode="&#xbe;" horiz-adv-x="727" 
d="M686 133v-66h-44v-67h-75v67h-125l-14 41l152 208h62v-183h44zM607 579l-416 -587h-40l416 587h40zM283 352q0 -45 -37 -75.5t-90 -30.5q-64 0 -106 48l46 46q30 -27 57 -27q23 0 38 11.5t15 28.5q0 18 -15 29t-38 11q-18 0 -32 -8l-28 38q76 34 97 78h-130v67h216v-35
q-10 -59 -50 -93q10 -4 20.5 -11.5t23.5 -28.5t13 -48zM566 200l-48 -67h48v67z" />
    <glyph glyph-name="questiondown" unicode="&#xbf;" horiz-adv-x="405" 
d="M336 275l-78 -78l-77 78l77 78zM355 -227q-61 -21 -120 -21q-87 0 -146 45.5t-59 124.5q0 76 55.5 128t133.5 74l10 29h64l19 -88q-175 -41 -175 -142q0 -37 28 -59.5t75 -22.5q49 0 115 26v-94z" />
    <glyph glyph-name="Agrave" unicode="&#xc0;" horiz-adv-x="553" 
d="M543 0h-115l-57 160h-192l-57 -160h-112l220 568h93zM342 243l-67 189l-67 -189h134zM249 616l-99 153h105l56 -153h-62z" />
    <glyph glyph-name="Aacute" unicode="&#xc1;" horiz-adv-x="553" 
d="M543 0h-115l-57 160h-192l-57 -160h-112l220 568h93zM342 243l-67 189l-67 -189h134zM402 769l-99 -153h-62l56 153h105z" />
    <glyph glyph-name="Acircumflex" unicode="&#xc2;" horiz-adv-x="553" 
d="M543 0h-115l-57 160h-192l-57 -160h-112l220 568h93zM342 243l-67 189l-67 -189h134zM398 616h-58l-63 91l-62 -91h-58l85 154h71z" />
    <glyph glyph-name="Atilde" unicode="&#xc3;" horiz-adv-x="553" 
d="M543 0h-115l-57 160h-192l-57 -160h-112l220 568h93zM342 243l-67 189l-67 -189h134zM424 737q-3 -42 -27 -70t-63 -28q-26 0 -56.5 15.5t-43.5 15.5q-28 0 -31 -30h-72q3 43 25.5 70.5t64.5 27.5q23 0 55.5 -15.5t47.5 -15.5q11 0 19.5 8t8.5 22h72z" />
    <glyph glyph-name="Adieresis" unicode="&#xc4;" horiz-adv-x="553" 
d="M543 0h-115l-57 160h-192l-57 -160h-112l220 568h93zM342 243l-67 189l-67 -189h134zM428 699l-66 -65l-65 65l65 66zM258 699l-65 -65l-66 65l66 66z" />
    <glyph glyph-name="Aring" unicode="&#xc5;" horiz-adv-x="553" 
d="M543 0h-115l-57 160h-192l-57 -160h-112l220 568h93zM342 243l-67 189l-67 -189h134zM373 707q0 -37 -28 -63t-67 -26q-40 0 -68 25.5t-28 62.5t28 63.5t68 26.5q39 0 67 -26t28 -63zM320 707q0 17 -12.5 28.5t-29.5 11.5t-29.5 -11.5t-12.5 -28.5t12.5 -28.5t29.5 -11.5
t29.5 11.5t12.5 28.5z" />
    <glyph glyph-name="AE" unicode="&#xc6;" horiz-adv-x="754" 
d="M712 0h-356v160h-149l-83 -160h-124l320 568h379v-95h-235v-149h176v-94h-176v-135h248v-95zM356 243v203l-106 -203h106z" />
    <glyph glyph-name="Ccedilla" unicode="&#xc7;" horiz-adv-x="607" 
d="M565 23q-79 -35 -177 -39l-4 -15q27 -3 42 -24t15 -52q0 -40 -29 -64.5t-68 -24.5q-30 0 -48 10v66q12 -9 36 -9q14 0 23.5 7.5t9.5 20.5t-10 21t-23 8q-14 0 -27 -5l17 63q-117 13 -198.5 96t-81.5 201q0 129 95 215.5t225 86.5q106 0 203 -39v-107q-102 51 -190 51
t-152 -58.5t-64 -147.5q0 -88 61 -146.5t147 -58.5q28 0 55.5 4t51.5 11t39 12.5t33 13.5t19 8v-105z" />
    <glyph glyph-name="Egrave" unicode="&#xc8;" horiz-adv-x="473" 
d="M431 0h-357v568h344v-95h-236v-139h176v-94h-176v-145h249v-95zM220 616l-99 153h105l56 -153h-62z" />
    <glyph glyph-name="Eacute" unicode="&#xc9;" horiz-adv-x="473" 
d="M431 0h-357v568h344v-95h-236v-139h176v-94h-176v-145h249v-95zM365 769l-99 -153h-62l56 153h105z" />
    <glyph glyph-name="Ecircumflex" unicode="&#xca;" horiz-adv-x="473" 
d="M431 0h-357v568h344v-95h-236v-139h176v-94h-176v-145h249v-95zM366 616h-58l-63 91l-62 -91h-58l85 154h71z" />
    <glyph glyph-name="Edieresis" unicode="&#xcb;" horiz-adv-x="473" 
d="M431 0h-357v568h344v-95h-236v-139h176v-94h-176v-145h249v-95zM396 699l-66 -65l-65 65l65 66zM226 699l-65 -65l-66 65l66 66z" />
    <glyph glyph-name="Igrave" unicode="&#xcc;" horiz-adv-x="266" 
d="M187 0h-108v568h108v-568zM106 616l-99 153h105l56 -153h-62z" />
    <glyph glyph-name="Iacute" unicode="&#xcd;" horiz-adv-x="266" 
d="M187 0h-108v568h108v-568zM255 769l-99 -153h-62l56 153h105z" />
    <glyph glyph-name="Icircumflex" unicode="&#xce;" horiz-adv-x="266" 
d="M187 0h-108v568h108v-568zM254 616h-58l-63 91l-62 -91h-58l85 154h71z" />
    <glyph glyph-name="Idieresis" unicode="&#xcf;" horiz-adv-x="266" 
d="M187 0h-108v568h108v-568zM284 699l-66 -65l-65 65l65 66zM114 699l-65 -65l-66 65l66 66z" />
    <glyph glyph-name="Eth" unicode="&#xd0;" horiz-adv-x="626" 
d="M581 282q0 -132 -96 -207t-230 -75h-190v246h-65v75h65v247h185q134 0 232.5 -77.5t98.5 -208.5zM469 282q0 85 -61.5 138t-154.5 53h-80v-152h176v-75h-176v-149h84q94 0 153 50t59 135z" />
    <glyph glyph-name="Ntilde" unicode="&#xd1;" horiz-adv-x="638" 
d="M564 0h-108v120l-274 274v-394h-108v568h72l310 -310v310h108v-568zM459 737q-3 -42 -27 -70t-63 -28q-26 0 -56.5 15.5t-43.5 15.5q-28 0 -31 -30h-72q3 43 25.5 70.5t64.5 27.5q23 0 55.5 -15.5t47.5 -15.5q11 0 19.5 8t8.5 22h72z" />
    <glyph glyph-name="Ograve" unicode="&#xd2;" horiz-adv-x="723" 
d="M681 284q0 -126 -91.5 -213.5t-228.5 -87.5q-136 0 -227.5 87.5t-91.5 213.5t91.5 213.5t227.5 87.5q137 0 228.5 -87.5t91.5 -213.5zM570 284q0 86 -60 146t-149 60t-148.5 -60t-59.5 -146t59.5 -146t148.5 -60t149 60t60 146zM336 616l-99 153h105l56 -153h-62z" />
    <glyph glyph-name="Oacute" unicode="&#xd3;" horiz-adv-x="723" 
d="M681 284q0 -126 -91.5 -213.5t-228.5 -87.5q-136 0 -227.5 87.5t-91.5 213.5t91.5 213.5t227.5 87.5q137 0 228.5 -87.5t91.5 -213.5zM570 284q0 86 -60 146t-149 60t-148.5 -60t-59.5 -146t59.5 -146t148.5 -60t149 60t60 146zM481 769l-99 -153h-62l56 153h105z" />
    <glyph glyph-name="Ocircumflex" unicode="&#xd4;" horiz-adv-x="723" 
d="M681 284q0 -126 -91.5 -213.5t-228.5 -87.5q-136 0 -227.5 87.5t-91.5 213.5t91.5 213.5t227.5 87.5q137 0 228.5 -87.5t91.5 -213.5zM570 284q0 86 -60 146t-149 60t-148.5 -60t-59.5 -146t59.5 -146t148.5 -60t149 60t60 146zM482 616h-58l-63 91l-62 -91h-58l85 154
h71z" />
    <glyph glyph-name="Otilde" unicode="&#xd5;" horiz-adv-x="723" 
d="M681 284q0 -126 -91.5 -213.5t-228.5 -87.5q-136 0 -227.5 87.5t-91.5 213.5t91.5 213.5t227.5 87.5q137 0 228.5 -87.5t91.5 -213.5zM570 284q0 86 -60 146t-149 60t-148.5 -60t-59.5 -146t59.5 -146t148.5 -60t149 60t60 146zM508 737q-3 -42 -27 -70t-63 -28
q-26 0 -56.5 15.5t-43.5 15.5q-28 0 -31 -30h-72q3 43 25.5 70.5t64.5 27.5q23 0 55.5 -15.5t47.5 -15.5q11 0 19.5 8t8.5 22h72z" />
    <glyph glyph-name="Odieresis" unicode="&#xd6;" horiz-adv-x="723" 
d="M681 284q0 -126 -91.5 -213.5t-228.5 -87.5q-136 0 -227.5 87.5t-91.5 213.5t91.5 213.5t227.5 87.5q137 0 228.5 -87.5t91.5 -213.5zM570 284q0 86 -60 146t-149 60t-148.5 -60t-59.5 -146t59.5 -146t148.5 -60t149 60t60 146zM512 699l-66 -65l-65 65l65 66zM342 699
l-65 -65l-66 65l66 66z" />
    <glyph glyph-name="multiply" unicode="&#xd7;" horiz-adv-x="630" 
d="M556 62l-48 -48l-193 193l-193 -193l-48 48l193 193l-190 190l48 48l190 -190l190 190l48 -48l-190 -190z" />
    <glyph glyph-name="Oslash" unicode="&#xd8;" horiz-adv-x="723" 
d="M681 284q0 -126 -91.5 -213.5t-228.5 -87.5q-107 0 -191 58l-86 -94l-30 29l83 92q-95 87 -95 216q0 126 91.5 213.5t227.5 87.5q108 0 193 -59l86 94l29 -29l-83 -91q95 -87 95 -216zM570 284q0 81 -53 139l-279 -306q53 -39 123 -39q89 0 149 60t60 146zM486 451
q-53 39 -125 39q-89 0 -148.5 -60t-59.5 -146q0 -81 54 -140z" />
    <glyph glyph-name="Ugrave" unicode="&#xd9;" horiz-adv-x="610" 
d="M305 -15q-111 0 -173.5 57t-62.5 155v371h108v-355q0 -63 34 -98t94 -35t94 35t34 98v355h108v-371q0 -98 -62.5 -155t-173.5 -57zM280 616l-99 153h105l56 -153h-62z" />
    <glyph glyph-name="Uacute" unicode="&#xda;" horiz-adv-x="610" 
d="M305 -15q-111 0 -173.5 57t-62.5 155v371h108v-355q0 -63 34 -98t94 -35t94 35t34 98v355h108v-371q0 -98 -62.5 -155t-173.5 -57zM425 769l-99 -153h-62l56 153h105z" />
    <glyph glyph-name="Ucircumflex" unicode="&#xdb;" horiz-adv-x="610" 
d="M305 -15q-111 0 -173.5 57t-62.5 155v371h108v-355q0 -63 34 -98t94 -35t94 35t34 98v355h108v-371q0 -98 -62.5 -155t-173.5 -57zM426 616h-58l-63 91l-62 -91h-58l85 154h71z" />
    <glyph glyph-name="Udieresis" unicode="&#xdc;" horiz-adv-x="610" 
d="M305 -15q-111 0 -173.5 57t-62.5 155v371h108v-355q0 -63 34 -98t94 -35t94 35t34 98v355h108v-371q0 -98 -62.5 -155t-173.5 -57zM456 699l-66 -65l-65 65l65 66zM286 699l-65 -65l-66 65l66 66z" />
    <glyph glyph-name="Yacute" unicode="&#xdd;" horiz-adv-x="498" 
d="M249 329l121 239h120l-187 -343v-225h-108v226l-187 342h120zM368 769l-99 -153h-62l56 153h105z" />
    <glyph glyph-name="Thorn" unicode="&#xde;" horiz-adv-x="478" 
d="M446 292q0 -85 -66.5 -128.5t-153.5 -43.5h-44v-120h-108v568h108v-106h58q92 0 149 -46t57 -124zM326 293q0 36 -21 53.5t-69 17.5h-54v-149q79 1 106 14q38 18 38 64z" />
    <glyph glyph-name="germandbls" unicode="&#xdf;" horiz-adv-x="460" 
d="M425 160q0 -72 -50 -121.5t-123 -49.5q-34 0 -68 9l12 100q24 -11 47 -11q33 0 56.5 22.5t23.5 55.5q0 43 -35.5 74.5t-88.5 37.5v56q34 7 56 29t22 57q0 27 -17.5 45.5t-43.5 18.5q-29 0 -47.5 -21.5t-18.5 -57.5v-404h-100v393q0 84 46 134t122 50q66 0 112.5 -42
t46.5 -104q0 -74 -58 -112q47 -20 76.5 -63t29.5 -96z" />
    <glyph glyph-name="agrave" unicode="&#xe0;" horiz-adv-x="391" 
d="M262 0l-15 26q-36 -36 -99 -36q-49 0 -81 25t-32 77q0 95 127 126l76 19q-2 18 -17.5 29.5t-41.5 11.5q-74 0 -121 -49v87q43 48 127 48q67 0 109 -36.5t42 -96.5v-231h-74zM176 66q33 0 63 22v85l-58 -15q-50 -13 -50 -52q0 -40 45 -40zM167 407l-112 185h102l71 -185
h-61z" />
    <glyph glyph-name="aacute" unicode="&#xe1;" horiz-adv-x="391" 
d="M262 0l-15 26q-36 -36 -99 -36q-49 0 -81 25t-32 77q0 95 127 126l76 19q-2 18 -17.5 29.5t-41.5 11.5q-74 0 -121 -49v87q43 48 127 48q67 0 109 -36.5t42 -96.5v-231h-74zM176 66q33 0 63 22v85l-58 -15q-50 -13 -50 -52q0 -40 45 -40zM318 592l-112 -185h-61l71 185
h102z" />
    <glyph glyph-name="acircumflex" unicode="&#xe2;" horiz-adv-x="391" 
d="M262 0l-15 26q-36 -36 -99 -36q-49 0 -81 25t-32 77q0 95 127 126l76 19q-2 18 -17.5 29.5t-41.5 11.5q-74 0 -121 -49v87q43 48 127 48q67 0 109 -36.5t42 -96.5v-231h-74zM305 407h-62l-56 109l-55 -109h-62l84 185h67zM176 66q33 0 63 22v85l-58 -15q-50 -13 -50 -52
q0 -40 45 -40z" />
    <glyph glyph-name="atilde" unicode="&#xe3;" horiz-adv-x="391" 
d="M262 0l-15 26q-36 -36 -99 -36q-49 0 -81 25t-32 77q0 95 127 126l76 19q-2 18 -17.5 29.5t-41.5 11.5q-74 0 -121 -49v87q43 48 127 48q67 0 109 -36.5t42 -96.5v-231h-74zM176 66q33 0 63 22v85l-58 -15q-50 -13 -50 -52q0 -40 45 -40zM328 528q-3 -44 -26 -73t-61 -29
q-25 0 -53.5 19.5t-40.5 19.5q-25 0 -28 -34h-72q3 45 24.5 73.5t62.5 28.5q22 0 52.5 -19.5t44.5 -19.5q10 0 17.5 9t7.5 25h72z" />
    <glyph glyph-name="adieresis" unicode="&#xe4;" horiz-adv-x="391" 
d="M262 0l-15 26q-36 -36 -99 -36q-49 0 -81 25t-32 77q0 95 127 126l76 19q-2 18 -17.5 29.5t-41.5 11.5q-74 0 -121 -49v87q43 48 127 48q67 0 109 -36.5t42 -96.5v-231h-74zM176 66q33 0 63 22v85l-58 -15q-50 -13 -50 -52q0 -40 45 -40zM335 490l-66 -65l-65 65l65 66z
M171 490l-65 -65l-66 65l66 66z" />
    <glyph glyph-name="aring" unicode="&#xe5;" horiz-adv-x="391" 
d="M262 0l-15 26q-36 -36 -99 -36q-49 0 -81 25t-32 77q0 95 127 126l76 19q-2 18 -17.5 29.5t-41.5 11.5q-74 0 -121 -49v87q43 48 127 48q67 0 109 -36.5t42 -96.5v-231h-74zM282 498q0 -38 -27.5 -64.5t-66.5 -26.5q-40 0 -67.5 26t-27.5 64t27.5 65t67.5 27
q39 0 66.5 -26.5t27.5 -64.5zM176 66q33 0 63 22v85l-58 -15q-50 -13 -50 -52q0 -40 45 -40zM229 498q0 18 -12 30t-29 12t-29 -12t-12 -30t12 -30t29 -12t29 12t12 30z" />
    <glyph glyph-name="ae" unicode="&#xe6;" horiz-adv-x="616" 
d="M160 -10q-54 0 -89.5 25.5t-35.5 76.5q0 95 127 126l78 19q-2 18 -18.5 29.5t-42.5 11.5q-74 0 -121 -49v87q43 48 127 48q71 0 114 -49q51 49 113 49q68 0 112.5 -47t44.5 -120v-47h-239q9 -34 37.5 -57.5t70.5 -23.5q51 0 126 30v-79q-62 -31 -135 -31q-83 0 -142 59
q-39 -58 -127 -58zM251 102q-10 24 -10 55v17l-60 -16q-50 -13 -50 -52q0 -40 47 -40q37 0 73 36zM479 213q0 28 -18.5 50.5t-48.5 22.5q-31 0 -52.5 -21t-26.5 -52h146z" />
    <glyph glyph-name="ccedilla" unicode="&#xe7;" horiz-adv-x="390" 
d="M355 24q-56 -30 -103 -34l-6 -20q26 -3 40.5 -23t14.5 -50q0 -39 -28.5 -63t-66.5 -24q-30 0 -48 10v66q12 -9 36 -9q13 0 22 7t9 19t-9 19t-22 7q-14 0 -27 -5l18 69q-68 13 -111.5 62.5t-43.5 119.5q0 81 56.5 134.5t140.5 53.5q62 0 126 -34v-85q-68 32 -109 32
q-52 0 -83 -28t-31 -72q0 -43 31.5 -70.5t82.5 -27.5q45 0 111 33v-87z" />
    <glyph glyph-name="egrave" unicode="&#xe8;" horiz-adv-x="414" 
d="M367 150h-237q9 -34 38 -57.5t69 -23.5q15 0 30.5 2t27 4.5t23.5 6.5t19 6.5t15.5 6t9.5 4.5v-79q-57 -31 -135 -31t-137.5 51.5t-59.5 135.5q0 78 53.5 133t126.5 55q68 0 112.5 -47t44.5 -120v-47zM277 213q0 28 -18 50.5t-48 22.5t-51.5 -21t-26.5 -52h144zM190 407
l-112 185h102l71 -185h-61z" />
    <glyph glyph-name="eacute" unicode="&#xe9;" horiz-adv-x="414" 
d="M367 150h-237q9 -34 38 -57.5t69 -23.5q15 0 30.5 2t27 4.5t23.5 6.5t19 6.5t15.5 6t9.5 4.5v-79q-57 -31 -135 -31t-137.5 51.5t-59.5 135.5q0 78 53.5 133t126.5 55q68 0 112.5 -47t44.5 -120v-47zM277 213q0 28 -18 50.5t-48 22.5t-51.5 -21t-26.5 -52h144zM341 592
l-112 -185h-61l71 185h102z" />
    <glyph glyph-name="ecircumflex" unicode="&#xea;" horiz-adv-x="414" 
d="M367 150h-237q9 -34 38 -57.5t69 -23.5q15 0 30.5 2t27 4.5t23.5 6.5t19 6.5t15.5 6t9.5 4.5v-79q-57 -31 -135 -31t-137.5 51.5t-59.5 135.5q0 78 53.5 133t126.5 55q68 0 112.5 -47t44.5 -120v-47zM277 213q0 28 -18 50.5t-48 22.5t-51.5 -21t-26.5 -52h144zM328 407
h-62l-56 109l-55 -109h-62l84 185h67z" />
    <glyph glyph-name="edieresis" unicode="&#xeb;" horiz-adv-x="414" 
d="M367 150h-237q9 -34 38 -57.5t69 -23.5q15 0 30.5 2t27 4.5t23.5 6.5t19 6.5t15.5 6t9.5 4.5v-79q-57 -31 -135 -31t-137.5 51.5t-59.5 135.5q0 78 53.5 133t126.5 55q68 0 112.5 -47t44.5 -120v-47zM277 213q0 28 -18 50.5t-48 22.5t-51.5 -21t-26.5 -52h144zM358 490
l-66 -65l-65 65l65 66zM194 490l-65 -65l-66 65l66 66z" />
    <glyph glyph-name="igrave" unicode="&#xec;" horiz-adv-x="230" 
d="M165 0h-100v353h100v-353zM89 407l-112 185h102l71 -185h-61z" />
    <glyph glyph-name="iacute" unicode="&#xed;" horiz-adv-x="230" 
d="M165 0h-100v353h100v-353zM249 592l-112 -185h-61l71 185h102z" />
    <glyph glyph-name="icircumflex" unicode="&#xee;" horiz-adv-x="230" 
d="M165 0h-100v353h100v-353zM233 407h-62l-56 109l-55 -109h-62l84 185h67z" />
    <glyph glyph-name="idieresis" unicode="&#xef;" horiz-adv-x="230" 
d="M165 0h-100v353h100v-353zM263 490l-66 -65l-65 65l65 66zM99 490l-65 -65l-66 65l66 66z" />
    <glyph glyph-name="eth" unicode="&#xf0;" horiz-adv-x="475" 
d="M440 238q0 -119 -57.5 -184t-148.5 -65q-82 0 -140.5 54t-58.5 133t58.5 133.5t140.5 54.5q36 0 86 -22q-22 71 -63 132l-100 -61l-39 53l98 60q-21 24 -61 59l63 63q47 -40 77 -74l103 62l39 -53l-99 -60q102 -136 102 -285zM335 176q0 42 -29 70.5t-71 28.5
t-71.5 -28.5t-29.5 -70.5t29.5 -70t71.5 -28t71 28t29 70z" />
    <glyph glyph-name="ntilde" unicode="&#xf1;" horiz-adv-x="451" 
d="M396 0h-100v216q0 30 -16.5 46t-43.5 16q-39 0 -81 -39v-239h-100v353h96l5 -30q44 41 110 41q59 0 94.5 -38.5t35.5 -112.5v-213zM368 528q-3 -44 -26 -73t-61 -29q-25 0 -53.5 19.5t-40.5 19.5q-25 0 -28 -34h-72q3 45 24.5 73.5t62.5 28.5q22 0 52.5 -19.5t44.5 -19.5
q10 0 17.5 9t7.5 25h72z" />
    <glyph glyph-name="ograve" unicode="&#xf2;" horiz-adv-x="457" 
d="M427 176q0 -79 -58 -133t-140 -54q-83 0 -141 54t-58 133t58 133.5t141 54.5q82 0 140 -54.5t58 -133.5zM327 176q0 44 -29 74.5t-69 30.5q-41 0 -70 -30t-29 -75q0 -44 29 -74t70 -30q40 0 69 30t29 74zM209 407l-112 185h102l71 -185h-61z" />
    <glyph glyph-name="oacute" unicode="&#xf3;" horiz-adv-x="457" 
d="M427 176q0 -79 -58 -133t-140 -54q-83 0 -141 54t-58 133t58 133.5t141 54.5q82 0 140 -54.5t58 -133.5zM327 176q0 44 -29 74.5t-69 30.5q-41 0 -70 -30t-29 -75q0 -44 29 -74t70 -30q40 0 69 30t29 74zM360 592l-112 -185h-61l71 185h102z" />
    <glyph glyph-name="ocircumflex" unicode="&#xf4;" horiz-adv-x="457" 
d="M427 176q0 -79 -58 -133t-140 -54q-83 0 -141 54t-58 133t58 133.5t141 54.5q82 0 140 -54.5t58 -133.5zM327 176q0 44 -29 74.5t-69 30.5q-41 0 -70 -30t-29 -75q0 -44 29 -74t70 -30q40 0 69 30t29 74zM347 407h-62l-56 109l-55 -109h-62l84 185h67z" />
    <glyph glyph-name="otilde" unicode="&#xf5;" horiz-adv-x="457" 
d="M427 176q0 -79 -58 -133t-140 -54q-83 0 -141 54t-58 133t58 133.5t141 54.5q82 0 140 -54.5t58 -133.5zM327 176q0 44 -29 74.5t-69 30.5q-41 0 -70 -30t-29 -75q0 -44 29 -74t70 -30q40 0 69 30t29 74zM370 528q-3 -44 -26 -73t-61 -29q-25 0 -53.5 19.5t-40.5 19.5
q-25 0 -28 -34h-72q3 45 24.5 73.5t62.5 28.5q22 0 52.5 -19.5t44.5 -19.5q10 0 17.5 9t7.5 25h72z" />
    <glyph glyph-name="odieresis" unicode="&#xf6;" horiz-adv-x="457" 
d="M427 176q0 -79 -58 -133t-140 -54q-83 0 -141 54t-58 133t58 133.5t141 54.5q82 0 140 -54.5t58 -133.5zM327 176q0 44 -29 74.5t-69 30.5q-41 0 -70 -30t-29 -75q0 -44 29 -74t70 -30q40 0 69 30t29 74zM377 490l-66 -65l-65 65l65 66zM213 490l-65 -65l-66 65l66 66z
" />
    <glyph glyph-name="divide" unicode="&#xf7;" horiz-adv-x="515" 
d="M465 221h-415v68h415v-68zM322 419l-65 -65l-66 66l65 65zM322 90l-65 -65l-66 66l65 65z" />
    <glyph glyph-name="oslash" unicode="&#xf8;" horiz-adv-x="457" 
d="M305 242l-127 -156q23 -14 51 -14q40 0 69 30t29 74q0 38 -22 66zM154 107l128 157q-23 17 -53 17q-41 0 -70 -30t-29 -75q0 -40 24 -69zM96 36q-66 56 -66 140q0 79 58 133.5t141 54.5q61 0 109 -31l55 66l22 -22l-51 -63q63 -53 63 -138q0 -79 -58 -133t-140 -54
q-59 0 -107 28l-14 -17l-28 -36l-15 -17l-23 23z" />
    <glyph glyph-name="ugrave" unicode="&#xf9;" horiz-adv-x="441" 
d="M386 0h-92l-6 23q-39 -34 -108 -34q-54 0 -89.5 38.5t-35.5 112.5v213h100v-216q0 -30 16.5 -46t43.5 -16q31 0 71 30v248h100v-353zM202 407l-112 185h102l71 -185h-61z" />
    <glyph glyph-name="uacute" unicode="&#xfa;" horiz-adv-x="441" 
d="M386 0h-92l-6 23q-39 -34 -108 -34q-54 0 -89.5 38.5t-35.5 112.5v213h100v-216q0 -30 16.5 -46t43.5 -16q31 0 71 30v248h100v-353zM351 592l-112 -185h-61l71 185h102z" />
    <glyph glyph-name="ucircumflex" unicode="&#xfb;" horiz-adv-x="441" 
d="M386 0h-92l-6 23q-39 -34 -108 -34q-54 0 -89.5 38.5t-35.5 112.5v213h100v-216q0 -30 16.5 -46t43.5 -16q31 0 71 30v248h100v-353zM338 407h-62l-56 109l-55 -109h-62l84 185h67z" />
    <glyph glyph-name="udieresis" unicode="&#xfc;" horiz-adv-x="441" 
d="M386 0h-92l-6 23q-39 -34 -108 -34q-54 0 -89.5 38.5t-35.5 112.5v213h100v-216q0 -30 16.5 -46t43.5 -16q31 0 71 30v248h100v-353zM368 490l-66 -65l-65 65l65 66zM204 490l-65 -65l-66 65l66 66z" />
    <glyph glyph-name="yacute" unicode="&#xfd;" horiz-adv-x="366" 
d="M361 353l-133 -353l-82 -227h-96l83 227l-128 353h99l79 -240l79 240h99zM314 592l-112 -185h-61l71 185h102z" />
    <glyph glyph-name="thorn" unicode="&#xfe;" horiz-adv-x="458" 
d="M428 179q0 -87 -50.5 -138.5t-127.5 -51.5q-52 0 -95 28v-244h-100v807h100v-248q38 33 102 33q69 0 120 -48.5t51 -137.5zM328 179q0 47 -28 74t-68 27q-52 0 -77 -32v-145q31 -29 79 -29q43 0 68.5 30t25.5 75z" />
    <glyph glyph-name="ydieresis" unicode="&#xff;" horiz-adv-x="366" 
d="M361 353l-133 -353l-82 -227h-96l83 227l-128 353h99l79 -240l79 240h99zM331 490l-66 -65l-65 65l65 66zM167 490l-65 -65l-66 65l66 66z" />
    <glyph glyph-name="Amacron" unicode="&#x100;" horiz-adv-x="553" 
d="M543 0h-115l-57 160h-192l-57 -160h-112l220 568h93zM342 243l-67 189l-67 -189h134zM424 652h-293v70h293v-70z" />
    <glyph glyph-name="amacron" unicode="&#x101;" horiz-adv-x="391" 
d="M262 0l-15 26q-36 -36 -99 -36q-49 0 -81 25t-32 77q0 95 127 126l76 19q-2 18 -17.5 29.5t-41.5 11.5q-74 0 -121 -49v87q43 48 127 48q67 0 109 -36.5t42 -96.5v-231h-74zM318 443h-258v72h258v-72zM176 66q33 0 63 22v85l-58 -15q-50 -13 -50 -52q0 -40 45 -40z" />
    <glyph glyph-name="Abreve" unicode="&#x102;" horiz-adv-x="553" 
d="M543 0h-115l-57 160h-192l-57 -160h-112l220 568h93zM342 243l-67 189l-67 -189h134zM411 760q0 -60 -39.5 -97.5t-93.5 -37.5q-55 0 -94.5 37.5t-39.5 97.5h70q0 -32 18.5 -52t44.5 -20q27 0 45.5 20t18.5 52h70z" />
    <glyph glyph-name="abreve" unicode="&#x103;" horiz-adv-x="391" 
d="M262 0l-15 26q-36 -36 -99 -36q-49 0 -81 25t-32 77q0 95 127 126l76 19q-2 18 -17.5 29.5t-41.5 11.5q-74 0 -121 -49v87q43 48 127 48q67 0 109 -36.5t42 -96.5v-231h-74zM176 66q33 0 63 22v85l-58 -15q-50 -13 -50 -52q0 -40 45 -40zM319 557q0 -62 -39 -101.5
t-92 -39.5q-54 0 -93 39t-39 101v1h62q0 -31 20.5 -51t48.5 -20q29 0 49.5 20t20.5 51h62z" />
    <glyph glyph-name="Aogonek" unicode="&#x104;" horiz-adv-x="553" 
d="M543 -111v-72q-20 -13 -54 -13q-48 0 -76.5 27.5t-28.5 73.5q0 54 44 95l-57 160h-192l-57 -160h-112l220 568h93l220 -568h-5q-31 -10 -50 -33.5t-19 -48.5q0 -18 10.5 -27.5t27.5 -9.5q18 0 36 8zM342 243l-67 189l-67 -189h134z" />
    <glyph glyph-name="aogonek" unicode="&#x105;" horiz-adv-x="391" 
d="M341 -102v-72q-20 -13 -51 -13q-45 0 -72.5 27.5t-27.5 70.5q0 31 17.5 58.5t46.5 44.5l-7 12q-36 -36 -99 -36q-49 0 -81 25t-32 77q0 95 127 126l76 19q-2 18 -17.5 29.5t-41.5 11.5q-74 0 -121 -49v87q43 48 127 48q67 0 109 -36.5t42 -96.5v-231q-29 -10 -46 -30
t-17 -44q0 -16 10 -26t25 -10q21 0 33 8zM176 66q33 0 63 22v85l-58 -15q-50 -13 -50 -52q0 -40 45 -40z" />
    <glyph glyph-name="Cacute" unicode="&#x106;" horiz-adv-x="607" 
d="M565 23q-95 -40 -203 -40q-129 0 -224.5 85.5t-95.5 214.5t95 215.5t225 86.5q106 0 203 -39v-107q-102 51 -190 51t-152 -58.5t-64 -147.5q0 -88 61 -146.5t147 -58.5q28 0 55.5 4t51.5 11t39 12.5t33 13.5t19 8v-105zM480 769l-99 -153h-62l56 153h105z" />
    <glyph glyph-name="cacute" unicode="&#x107;" horiz-adv-x="390" 
d="M355 24q-66 -35 -128 -35q-83 0 -140 52.5t-57 133.5t56.5 134.5t140.5 53.5q62 0 126 -34v-85q-68 32 -109 32q-52 0 -83 -28t-31 -72q0 -43 31.5 -70.5t82.5 -27.5q45 0 111 33v-87zM351 592l-112 -185h-61l71 185h102z" />
    <glyph glyph-name="Ccircumflex" unicode="&#x108;" horiz-adv-x="607" 
d="M565 23q-95 -40 -203 -40q-129 0 -224.5 85.5t-95.5 214.5t95 215.5t225 86.5q106 0 203 -39v-107q-102 51 -190 51t-152 -58.5t-64 -147.5q0 -88 61 -146.5t147 -58.5q28 0 55.5 4t51.5 11t39 12.5t33 13.5t19 8v-105zM481 616h-58l-63 91l-62 -91h-58l85 154h71z" />
    <glyph glyph-name="ccircumflex" unicode="&#x109;" horiz-adv-x="390" 
d="M355 24q-66 -35 -128 -35q-83 0 -140 52.5t-57 133.5t56.5 134.5t140.5 53.5q62 0 126 -34v-85q-68 32 -109 32q-52 0 -83 -28t-31 -72q0 -43 31.5 -70.5t82.5 -27.5q45 0 111 33v-87zM338 407h-62l-56 109l-55 -109h-62l84 185h67z" />
    <glyph glyph-name="Cdotaccent" unicode="&#x10a;" horiz-adv-x="607" 
d="M565 23q-95 -40 -203 -40q-129 0 -224.5 85.5t-95.5 214.5t95 215.5t225 86.5q106 0 203 -39v-107q-102 51 -190 51t-152 -58.5t-64 -147.5q0 -88 61 -146.5t147 -58.5q28 0 55.5 4t51.5 11t39 12.5t33 13.5t19 8v-105zM426 699l-65 -65l-66 65l65 66z" />
    <glyph glyph-name="cdotaccent" unicode="&#x10b;" horiz-adv-x="390" 
d="M355 24q-66 -35 -128 -35q-83 0 -140 52.5t-57 133.5t56.5 134.5t140.5 53.5q62 0 126 -34v-85q-68 32 -109 32q-52 0 -83 -28t-31 -72q0 -43 31.5 -70.5t82.5 -27.5q45 0 111 33v-87zM286 490l-65 -65l-66 65l65 66z" />
    <glyph glyph-name="Ccaron" unicode="&#x10c;" horiz-adv-x="607" 
d="M565 23q-95 -40 -203 -40q-129 0 -224.5 85.5t-95.5 214.5t95 215.5t225 86.5q106 0 203 -39v-107q-102 51 -190 51t-152 -58.5t-64 -147.5q0 -88 61 -146.5t147 -58.5q28 0 55.5 4t51.5 11t39 12.5t33 13.5t19 8v-105zM485 769l-106 -153h-37l-106 153h78l46 -84l47 84
h78z" />
    <glyph glyph-name="ccaron" unicode="&#x10d;" horiz-adv-x="390" 
d="M355 24q-66 -35 -128 -35q-83 0 -140 52.5t-57 133.5t56.5 134.5t140.5 53.5q62 0 126 -34v-85q-68 32 -109 32q-52 0 -83 -28t-31 -72q0 -43 31.5 -70.5t82.5 -27.5q45 0 111 33v-87zM338 592l-100 -185h-35l-100 185h79l38 -105l39 105h79z" />
    <glyph glyph-name="Dcaron" unicode="&#x10e;" horiz-adv-x="632" 
d="M590 282q0 -132 -96 -207t-230 -75h-190v568h185q134 0 232.5 -77.5t98.5 -208.5zM478 282q0 85 -61.5 138t-154.5 53h-80v-376h84q94 0 153 50t59 135zM413 768l-106 -153h-37l-106 153h78l46 -84l47 84h78z" />
    <glyph glyph-name="dcaron" unicode="&#x10f;" horiz-adv-x="539" 
d="M403 1l-92 -3l-6 25q-36 -34 -103 -34q-70 0 -121 46.5t-51 143.5q0 77 51 131t126 54q61 0 96 -28v232h100v-567zM303 248q-31 31 -76 31q-42 0 -69.5 -30t-27.5 -72q0 -45 22.5 -74.5t67.5 -29.5q24 0 47 11t36 29v135zM566 580l-60 -184h-68l29 184h99z" />
    <glyph glyph-name="Dcroat" unicode="&#x110;" horiz-adv-x="626" 
d="M581 282q0 -132 -96 -207t-230 -75h-190v246h-65v75h65v247h185q134 0 232.5 -77.5t98.5 -208.5zM469 282q0 85 -61.5 138t-154.5 53h-80v-152h176v-75h-176v-149h84q94 0 153 50t59 135z" />
    <glyph glyph-name="dcroat" unicode="&#x111;" horiz-adv-x="458" 
d="M403 1l-92 -3l-6 25q-36 -34 -103 -34q-70 0 -121 46.5t-51 143.5q0 77 51 131t126 54q61 0 96 -28v90h-126l7 61h119v81h100v-81h51l-7 -61h-44v-425zM303 248q-31 31 -76 31q-42 0 -69.5 -30t-27.5 -72q0 -45 22.5 -74.5t67.5 -29.5q24 0 47 11t36 29v135z" />
    <glyph glyph-name="Emacron" unicode="&#x112;" horiz-adv-x="473" 
d="M431 0h-357v568h344v-95h-236v-139h176v-94h-176v-145h249v-95zM392 652h-293v70h293v-70z" />
    <glyph glyph-name="emacron" unicode="&#x113;" horiz-adv-x="414" 
d="M367 150h-237q9 -34 38 -57.5t69 -23.5q15 0 30.5 2t27 4.5t23.5 6.5t19 6.5t15.5 6t9.5 4.5v-79q-57 -31 -135 -31t-137.5 51.5t-59.5 135.5q0 78 53.5 133t126.5 55q68 0 112.5 -47t44.5 -120v-47zM277 213q0 28 -18 50.5t-48 22.5t-51.5 -21t-26.5 -52h144zM339 443
h-258v72h258v-72z" />
    <glyph glyph-name="Ebreve" unicode="&#x114;" horiz-adv-x="473" 
d="M431 0h-357v568h344v-95h-236v-139h176v-94h-176v-145h249v-95zM379 760q0 -60 -39.5 -97.5t-93.5 -37.5q-55 0 -94.5 37.5t-39.5 97.5h70q0 -32 18.5 -52t44.5 -20q27 0 45.5 20t18.5 52h70z" />
    <glyph glyph-name="ebreve" unicode="&#x115;" horiz-adv-x="414" 
d="M367 150h-237q9 -34 38 -57.5t69 -23.5q15 0 30.5 2t27 4.5t23.5 6.5t19 6.5t15.5 6t9.5 4.5v-79q-57 -31 -135 -31t-137.5 51.5t-59.5 135.5q0 78 53.5 133t126.5 55q68 0 112.5 -47t44.5 -120v-47zM277 213q0 28 -18 50.5t-48 22.5t-51.5 -21t-26.5 -52h144zM342 557
q0 -62 -39 -101.5t-92 -39.5q-54 0 -93 39t-39 101v1h62q0 -31 20.5 -51t48.5 -20q29 0 49.5 20t20.5 51h62z" />
    <glyph glyph-name="Edotaccent" unicode="&#x116;" horiz-adv-x="473" 
d="M431 0h-357v568h344v-95h-236v-139h176v-94h-176v-145h249v-95zM311 699l-65 -65l-66 65l65 66z" />
    <glyph glyph-name="edotaccent" unicode="&#x117;" horiz-adv-x="414" 
d="M367 150h-237q9 -34 38 -57.5t69 -23.5q15 0 30.5 2t27 4.5t23.5 6.5t19 6.5t15.5 6t9.5 4.5v-79q-57 -31 -135 -31t-137.5 51.5t-59.5 135.5q0 78 53.5 133t126.5 55q68 0 112.5 -47t44.5 -120v-47zM277 213q0 28 -18 50.5t-48 22.5t-51.5 -21t-26.5 -52h144zM276 490
l-65 -65l-66 65l65 66z" />
    <glyph glyph-name="Eogonek" unicode="&#x118;" horiz-adv-x="473" 
d="M436 -111v-72q-20 -13 -54 -13q-48 0 -76.5 27.5t-28.5 73.5q0 54 44 95h-247v568h344v-95h-236v-139h176v-94h-176v-145h249v-95q-31 -10 -50 -33.5t-19 -48.5q0 -18 10.5 -27.5t27.5 -9.5q18 0 36 8z" />
    <glyph glyph-name="eogonek" unicode="&#x119;" horiz-adv-x="414" 
d="M316 -170q-45 0 -72 26.5t-27 67.5q0 38 21 65h-11q-78 0 -137.5 51.5t-59.5 135.5q0 78 53.5 133t126.5 55q68 0 112.5 -47t44.5 -120v-47h-237q9 -34 38 -57.5t69 -23.5q15 0 30.5 2t27 4.5t23.5 6.5t19 6.5t15.5 6t9.5 4.5v-79q-63 -23 -63 -77q0 -16 10 -26t25 -10
q21 0 33 8v-72q-20 -13 -51 -13zM277 213q0 28 -18 50.5t-48 22.5t-51.5 -21t-26.5 -52h144z" />
    <glyph glyph-name="Ecaron" unicode="&#x11a;" horiz-adv-x="473" 
d="M431 0h-357v568h344v-95h-236v-139h176v-94h-176v-145h249v-95zM370 769l-106 -153h-37l-106 153h78l46 -84l47 84h78z" />
    <glyph glyph-name="ecaron" unicode="&#x11b;" horiz-adv-x="414" 
d="M367 150h-237q9 -34 38 -57.5t69 -23.5q15 0 30.5 2t27 4.5t23.5 6.5t19 6.5t15.5 6t9.5 4.5v-79q-57 -31 -135 -31t-137.5 51.5t-59.5 135.5q0 78 53.5 133t126.5 55q68 0 112.5 -47t44.5 -120v-47zM277 213q0 28 -18 50.5t-48 22.5t-51.5 -21t-26.5 -52h144zM328 592
l-100 -185h-35l-100 185h79l38 -105l39 105h79z" />
    <glyph glyph-name="Gcircumflex" unicode="&#x11c;" horiz-adv-x="629" 
d="M565 23q-95 -40 -203 -40q-129 0 -224.5 85.5t-95.5 214.5t95 215.5t225 86.5q106 0 203 -39v-107q-106 51 -190 51q-88 0 -152 -58.5t-64 -147.5q0 -88 61 -146.5t147 -58.5q43 0 90 11v182h108v-249zM481 616h-58l-63 91l-62 -91h-58l85 154h71z" />
    <glyph glyph-name="gcircumflex" unicode="&#x11d;" horiz-adv-x="408" 
d="M409 275h-66q16 -32 16 -68q0 -68 -48 -112.5t-117 -44.5q-20 0 -29 2l-20 -29l122 -36q48 -14 76 -45.5t28 -77.5q0 -52 -50.5 -90.5t-131.5 -38.5q-70 0 -119.5 36.5t-49.5 94.5q0 53 49 93l-51 17l78 103q-67 46 -67 128q0 68 48 112.5t117 44.5q63 0 108 -37l20 26
h87v-78zM267 207q0 32 -21 52.5t-52 20.5t-52.5 -20.5t-21.5 -52.5t21.5 -52.5t52.5 -20.5t52 20.5t21 52.5zM279 -136q0 33 -32 42l-100 31q-40 -25 -40 -60q0 -27 26 -46t60 -19q38 0 62 16t24 36zM318 407h-62l-56 109l-55 -109h-62l84 185h67z" />
    <glyph glyph-name="Gbreve" unicode="&#x11e;" horiz-adv-x="629" 
d="M565 23q-95 -40 -203 -40q-129 0 -224.5 85.5t-95.5 214.5t95 215.5t225 86.5q106 0 203 -39v-107q-106 51 -190 51q-88 0 -152 -58.5t-64 -147.5q0 -88 61 -146.5t147 -58.5q43 0 90 11v182h108v-249zM494 760q0 -60 -39.5 -97.5t-93.5 -37.5q-55 0 -94.5 37.5
t-39.5 97.5h70q0 -32 18.5 -52t44.5 -20q27 0 45.5 20t18.5 52h70z" />
    <glyph glyph-name="gbreve" unicode="&#x11f;" horiz-adv-x="408" 
d="M409 275h-66q16 -32 16 -68q0 -68 -48 -112.5t-117 -44.5q-20 0 -29 2l-20 -29l122 -36q48 -14 76 -45.5t28 -77.5q0 -52 -50.5 -90.5t-131.5 -38.5q-70 0 -119.5 36.5t-49.5 94.5q0 53 49 93l-51 17l78 103q-67 46 -67 128q0 68 48 112.5t117 44.5q63 0 108 -37l20 26
h87v-78zM267 207q0 32 -21 52.5t-52 20.5t-52.5 -20.5t-21.5 -52.5t21.5 -52.5t52.5 -20.5t52 20.5t21 52.5zM279 -136q0 33 -32 42l-100 31q-40 -25 -40 -60q0 -27 26 -46t60 -19q38 0 62 16t24 36zM332 557q0 -62 -39 -101.5t-92 -39.5q-54 0 -93 39t-39 101v1h62
q0 -31 20.5 -51t48.5 -20q29 0 49.5 20t20.5 51h62z" />
    <glyph glyph-name="Gdotaccent" unicode="&#x120;" horiz-adv-x="629" 
d="M565 23q-95 -40 -203 -40q-129 0 -224.5 85.5t-95.5 214.5t95 215.5t225 86.5q106 0 203 -39v-107q-106 51 -190 51q-88 0 -152 -58.5t-64 -147.5q0 -88 61 -146.5t147 -58.5q43 0 90 11v182h108v-249zM426 699l-65 -65l-66 65l65 66z" />
    <glyph glyph-name="gdotaccent" unicode="&#x121;" horiz-adv-x="408" 
d="M409 275h-66q16 -32 16 -68q0 -68 -48 -112.5t-117 -44.5q-20 0 -29 2l-20 -29l122 -36q48 -14 76 -45.5t28 -77.5q0 -52 -50.5 -90.5t-131.5 -38.5q-70 0 -119.5 36.5t-49.5 94.5q0 53 49 93l-51 17l78 103q-67 46 -67 128q0 68 48 112.5t117 44.5q63 0 108 -37l20 26
h87v-78zM267 207q0 32 -21 52.5t-52 20.5t-52.5 -20.5t-21.5 -52.5t21.5 -52.5t52.5 -20.5t52 20.5t21 52.5zM279 -136q0 33 -32 42l-100 31q-40 -25 -40 -60q0 -27 26 -46t60 -19q38 0 62 16t24 36zM266 490l-65 -65l-66 65l65 66z" />
    <glyph glyph-name="Gcommaaccent" unicode="&#x122;" horiz-adv-x="629" 
d="M565 23q-95 -40 -203 -40q-129 0 -224.5 85.5t-95.5 214.5t95 215.5t225 86.5q106 0 203 -39v-107q-106 51 -190 51q-88 0 -152 -58.5t-64 -147.5q0 -88 61 -146.5t147 -58.5q43 0 90 11v182h108v-249zM312 -49h97q-5 -41 -30 -88.5t-53 -75.5h-51q37 86 37 164z" />
    <glyph glyph-name="gcommaaccent" unicode="&#x123;" horiz-adv-x="408" 
d="M249 412h-97q5 41 30 88.5t53 75.5h51q-37 -86 -37 -164zM409 275h-66q16 -32 16 -68q0 -68 -48 -112.5t-117 -44.5q-20 0 -29 2l-20 -29l122 -36q48 -14 76 -45.5t28 -77.5q0 -52 -50.5 -90.5t-131.5 -38.5q-70 0 -119.5 36.5t-49.5 94.5q0 53 49 93l-51 17l78 103
q-67 46 -67 128q0 68 48 112.5t117 44.5q63 0 108 -37l20 26h87v-78zM267 207q0 32 -21 52.5t-52 20.5t-52.5 -20.5t-21.5 -52.5t21.5 -52.5t52.5 -20.5t52 20.5t21 52.5zM279 -136q0 33 -32 42l-100 31q-40 -25 -40 -60q0 -27 26 -46t60 -19q38 0 62 16t24 36z" />
    <glyph glyph-name="Hcircumflex" unicode="&#x124;" horiz-adv-x="627" 
d="M553 0h-108v240h-263v-240h-108v568h108v-235h263v235h108v-568zM433 616h-58l-63 91l-62 -91h-58l85 154h71z" />
    <glyph glyph-name="hcircumflex" unicode="&#x125;" horiz-adv-x="451" 
d="M396 0h-100v216q0 30 -16.5 46t-43.5 16q-22 0 -46 -14t-35 -25v-239h-100v568h100v-246q46 42 111 42q58 0 94 -37.5t36 -108.5v-218zM226 599h-58l-63 91l-62 -91h-58l85 154h71z" />
    <glyph glyph-name="Hbar" unicode="&#x126;" horiz-adv-x="627" 
d="M553 0h-108v240h-263v-240h-108v426h-61v67h61v75h108v-75h263v75h108v-75h61v-67h-61v-426zM182 333h263v93h-263v-93z" />
    <glyph glyph-name="hbar" unicode="&#x127;" horiz-adv-x="451" 
d="M396 0h-100v216q0 30 -16.5 46t-43.5 16q-22 0 -46 -14t-35 -25v-239h-100v426h-51l7 61h44v81h100v-81h126l-7 -61h-119v-104q46 42 111 42q58 0 94 -37.5t36 -108.5v-218z" />
    <glyph glyph-name="Itilde" unicode="&#x128;" horiz-adv-x="266" 
d="M187 0h-108v568h108v-568zM280 737q-3 -42 -27 -70t-63 -28q-26 0 -56.5 15.5t-43.5 15.5q-28 0 -31 -30h-72q3 43 25.5 70.5t64.5 27.5q23 0 55.5 -15.5t47.5 -15.5q11 0 19.5 8t8.5 22h72z" />
    <glyph glyph-name="itilde" unicode="&#x129;" horiz-adv-x="230" 
d="M165 0h-100v353h100v-353zM256 528q-3 -44 -26 -73t-61 -29q-25 0 -53.5 19.5t-40.5 19.5q-25 0 -28 -34h-72q3 45 24.5 73.5t62.5 28.5q22 0 52.5 -19.5t44.5 -19.5q10 0 17.5 9t7.5 25h72z" />
    <glyph glyph-name="Imacron" unicode="&#x12a;" horiz-adv-x="266" 
d="M187 0h-108v568h108v-568zM280 652h-293v70h293v-70z" />
    <glyph glyph-name="imacron" unicode="&#x12b;" horiz-adv-x="230" 
d="M165 0h-100v353h100v-353zM244 443h-258v72h258v-72z" />
    <glyph glyph-name="Iogonek" unicode="&#x12e;" horiz-adv-x="266" 
d="M192 -111v-72q-20 -13 -54 -13q-48 0 -76.5 27.5t-28.5 73.5q0 56 46 97v566h108v-568q-31 -10 -50 -33.5t-19 -48.5q0 -18 10.5 -27.5t27.5 -9.5q18 0 36 8z" />
    <glyph glyph-name="iogonek" unicode="&#x12f;" horiz-adv-x="230" 
d="M170 -102v-72q-20 -13 -51 -13q-45 0 -72.5 27.5t-27.5 70.5q0 56 46 91v351h100v-353q-29 -10 -46 -30t-17 -44q0 -16 10 -26t25 -10q21 0 33 8z" />
    <glyph glyph-name="Idotaccent" unicode="&#x130;" horiz-adv-x="266" 
d="M187 0h-108v568h108v-568zM199 699l-65 -65l-66 65l65 66z" />
    <glyph glyph-name="dotlessi" unicode="&#x131;" horiz-adv-x="230" 
d="M165 0h-100v353h100v-353z" />
    <glyph glyph-name="Jcircumflex" unicode="&#x134;" horiz-adv-x="337" 
d="M266 568v-439q0 -146 -154 -146q-54 0 -101 28l12 93q38 -26 86 -26q49 0 49 55v435h108zM333 616h-58l-63 91l-62 -91h-58l85 154h71z" />
    <glyph glyph-name="jcircumflex" unicode="&#x135;" horiz-adv-x="230" 
d="M-6 -248l-26 91q44 5 70.5 26.5t26.5 58.5v425h100v-447q0 -66 -48 -108.5t-123 -45.5zM233 407h-62l-56 109l-55 -109h-62l84 185h67z" />
    <glyph glyph-name="Kcommaaccent" unicode="&#x136;" horiz-adv-x="574" 
d="M541 568l-227 -227l159 -235q23 -35 50 -35q24 0 40 20l38 -39q-39 -62 -107 -62q-43 0 -69 18t-57 64l-130 193l-56 -56v-209h-108v568h108v-237l235 237h124zM246 -49h97q-5 -41 -30 -88.5t-53 -75.5h-51q37 86 37 164z" />
    <glyph glyph-name="kcommaaccent" unicode="&#x137;" horiz-adv-x="411" 
d="M411 50q-13 -60 -76 -60q-50 0 -81 46l-70 103l-29 -29v-110h-100v568h100v-349l130 134h113l-150 -150l80 -122q13 -20 29 -20q15 0 19 14zM168 -39h97q-5 -41 -30 -88.5t-53 -75.5h-51q37 86 37 164z" />
    <glyph glyph-name="kgreenlandic" unicode="&#x138;" horiz-adv-x="411" 
d="M411 50q-13 -60 -76 -60q-50 0 -81 46l-70 103l-29 -29v-110h-100v353h100v-134l130 134h113l-150 -150l80 -122q13 -20 29 -20q15 0 19 14z" />
    <glyph glyph-name="Lacute" unicode="&#x139;" horiz-adv-x="482" 
d="M472 0h-398v568h108v-474h290v-94zM248 769l-99 -153h-62l56 153h105z" />
    <glyph glyph-name="lacute" unicode="&#x13a;" horiz-adv-x="253" 
d="M248 95v-77q-27 -29 -87 -29q-48 0 -77 31t-29 91v457h100v-452q0 -41 40 -41q29 0 53 20zM228 769l-99 -153h-62l56 153h105z" />
    <glyph glyph-name="Lcommaaccent" unicode="&#x13b;" horiz-adv-x="482" 
d="M472 0h-398v568h108v-474h290v-94zM235 -49h97q-5 -41 -30 -88.5t-53 -75.5h-51q37 86 37 164z" />
    <glyph glyph-name="lcommaaccent" unicode="&#x13c;" horiz-adv-x="253" 
d="M248 95v-77q-27 -29 -87 -29q-48 0 -77 31t-29 91v457h100v-452q0 -41 40 -41q29 0 53 20zM106 -39h97q-5 -41 -30 -88.5t-53 -75.5h-51q37 86 37 164z" />
    <glyph glyph-name="Lcaron" unicode="&#x13d;" horiz-adv-x="482" 
d="M472 0h-398v568h108v-474h290v-94zM253 769l-106 -153h-37l-106 153h78l46 -84l47 84h78z" />
    <glyph glyph-name="lcaron" unicode="&#x13e;" horiz-adv-x="293" 
d="M323 580l-60 -184h-68l29 184h99zM248 95v-77q-27 -29 -87 -29q-48 0 -77 31t-29 91v457h100v-452q0 -41 40 -41q29 0 53 20z" />
    <glyph glyph-name="Ldot" unicode="&#x13f;" horiz-adv-x="515" 
d="M472 0h-398v568h108v-474h290v-94zM520 300l-65 -65l-66 65l65 66z" />
    <glyph glyph-name="ldot" unicode="&#x140;" horiz-adv-x="318" 
d="M248 95v-77q-27 -29 -87 -29q-48 0 -77 31t-29 91v457h100v-452q0 -41 40 -41q29 0 53 20zM338 237l-65 -65l-66 65l65 66z" />
    <glyph glyph-name="Lslash" unicode="&#x141;" horiz-adv-x="493" 
d="M483 0h-398v216l-65 -34v79l65 34v273h108v-217l112 59v-79l-112 -59v-178h290v-94z" />
    <glyph glyph-name="lslash" unicode="&#x142;" horiz-adv-x="268" 
d="M256 95v-77q-27 -29 -87 -29q-48 0 -77 31t-29 91v115l-51 -27v79l51 27v263h100v-209l60 32v-79l-60 -32v-164q0 -41 40 -41q29 0 53 20z" />
    <glyph glyph-name="Nacute" unicode="&#x143;" horiz-adv-x="638" 
d="M564 0h-108v120l-274 274v-394h-108v568h72l310 -310v310h108v-568zM432 769l-99 -153h-62l56 153h105z" />
    <glyph glyph-name="nacute" unicode="&#x144;" horiz-adv-x="451" 
d="M396 0h-100v216q0 30 -16.5 46t-43.5 16q-39 0 -81 -39v-239h-100v353h96l5 -30q44 41 110 41q59 0 94.5 -38.5t35.5 -112.5v-213zM358 592l-112 -185h-61l71 185h102z" />
    <glyph glyph-name="Ncommaaccent" unicode="&#x145;" horiz-adv-x="638" 
d="M564 0h-108v120l-274 274v-394h-108v568h72l310 -310v310h108v-568zM265 -49h97q-5 -41 -30 -88.5t-53 -75.5h-51q37 86 37 164z" />
    <glyph glyph-name="ncommaaccent" unicode="&#x146;" horiz-adv-x="451" 
d="M396 0h-100v216q0 30 -16.5 46t-43.5 16q-39 0 -81 -39v-239h-100v353h96l5 -30q44 41 110 41q59 0 94.5 -38.5t35.5 -112.5v-213zM181 -39h97q-5 -41 -30 -88.5t-53 -75.5h-51q37 86 37 164z" />
    <glyph glyph-name="Ncaron" unicode="&#x147;" horiz-adv-x="638" 
d="M564 0h-108v120l-274 274v-394h-108v568h72l310 -310v310h108v-568zM437 769l-106 -153h-37l-106 153h78l46 -84l47 84h78z" />
    <glyph glyph-name="ncaron" unicode="&#x148;" horiz-adv-x="451" 
d="M396 0h-100v216q0 30 -16.5 46t-43.5 16q-39 0 -81 -39v-239h-100v353h96l5 -30q44 41 110 41q59 0 94.5 -38.5t35.5 -112.5v-213zM345 592l-100 -185h-35l-100 185h79l38 -105l39 105h79z" />
    <glyph glyph-name="Eng" unicode="&#x14a;" horiz-adv-x="638" 
d="M564 -82q0 -146 -154 -146q-54 0 -101 28l12 93q38 -26 86 -26q49 0 49 55v198l-274 274v-394h-108v568h72l310 -310v310h108v-650z" />
    <glyph glyph-name="eng" unicode="&#x14b;" horiz-adv-x="451" 
d="M219 -233l-26 91q46 5 74.5 26.5t28.5 58.5v273q0 30 -16.5 46t-43.5 16q-39 0 -81 -39v-239h-100v353h96l5 -30q44 41 110 41q59 0 94.5 -38.5t35.5 -112.5v-292q0 -66 -50 -108.5t-127 -45.5z" />
    <glyph glyph-name="Omacron" unicode="&#x14c;" horiz-adv-x="723" 
d="M681 284q0 -126 -91.5 -213.5t-228.5 -87.5q-136 0 -227.5 87.5t-91.5 213.5t91.5 213.5t227.5 87.5q137 0 228.5 -87.5t91.5 -213.5zM570 284q0 86 -60 146t-149 60t-148.5 -60t-59.5 -146t59.5 -146t148.5 -60t149 60t60 146zM508 652h-293v70h293v-70z" />
    <glyph glyph-name="omacron" unicode="&#x14d;" horiz-adv-x="457" 
d="M427 176q0 -79 -58 -133t-140 -54q-83 0 -141 54t-58 133t58 133.5t141 54.5q82 0 140 -54.5t58 -133.5zM327 176q0 44 -29 74.5t-69 30.5q-41 0 -70 -30t-29 -75q0 -44 29 -74t70 -30q40 0 69 30t29 74zM358 443h-258v72h258v-72z" />
    <glyph glyph-name="Ohungarumlaut" unicode="&#x150;" horiz-adv-x="723" 
d="M681 284q0 -126 -91.5 -213.5t-228.5 -87.5q-136 0 -227.5 87.5t-91.5 213.5t91.5 213.5t227.5 87.5q137 0 228.5 -87.5t91.5 -213.5zM570 284q0 86 -60 146t-149 60t-148.5 -60t-59.5 -146t59.5 -146t148.5 -60t149 60t60 146zM424 769l-111 -153h-58l73 153h96z
M556 769l-111 -153h-58l73 153h96z" />
    <glyph glyph-name="ohungarumlaut" unicode="&#x151;" horiz-adv-x="457" 
d="M427 176q0 -79 -58 -133t-140 -54q-83 0 -141 54t-58 133t58 133.5t141 54.5q82 0 140 -54.5t58 -133.5zM327 176q0 44 -29 74.5t-69 30.5q-41 0 -70 -30t-29 -75q0 -44 29 -74t70 -30q40 0 69 30t29 74zM301 592l-117 -185h-56l74 185h99zM431 592l-117 -185h-56l74 185
h99z" />
    <glyph glyph-name="OE" unicode="&#x152;" horiz-adv-x="969" 
d="M927 0h-357v60q-88 -77 -209 -77q-136 0 -227.5 87.5t-91.5 213.5t91.5 213.5t227.5 87.5q121 0 209 -77v60h344v-95h-236v-139h176v-94h-176v-145h249v-95zM570 284q0 86 -60 146t-149 60t-148.5 -60t-59.5 -146t59.5 -146t148.5 -60t149 60t60 146z" />
    <glyph glyph-name="oe" unicode="&#x153;" horiz-adv-x="719" 
d="M379 58q-57 -69 -151 -69q-82 0 -140 54t-58 133t58 133.5t141 54.5q92 0 149 -68q55 68 137 68q68 0 112.5 -47t44.5 -120v-47h-237q9 -34 38 -57.5t69 -23.5q15 0 30.5 2t27 4.5t23.5 6.5t19 6.5t15.5 6t9.5 4.5v-79q-57 -31 -135 -31q-93 0 -153 69zM327 176
q0 44 -29 74.5t-69 30.5q-41 0 -70 -30t-29 -75q0 -44 29 -74t70 -30q40 0 69 30t29 74zM582 213q0 28 -18 50.5t-48 22.5t-51.5 -21t-26.5 -52h144z" />
    <glyph glyph-name="Racute" unicode="&#x154;" horiz-adv-x="531" 
d="M541 56q-40 -66 -107 -66q-43 0 -70.5 18t-57.5 64l-95 145h-29v-217h-108v568h169q96 0 150 -45t54 -122q0 -102 -121 -169l87 -126q23 -35 50 -35q18 0 40 24zM339 393q0 80 -96 80h-61v-168h48q45 0 77 25t32 63zM352 769l-99 -153h-62l56 153h105z" />
    <glyph glyph-name="racute" unicode="&#x155;" horiz-adv-x="287" 
d="M287 269q-28 8 -56 8q-39 0 -76 -33v-244h-100v353h95l5 -37q36 48 89 48q13 0 43 -5v-90zM302 592l-112 -185h-61l71 185h102z" />
    <glyph glyph-name="Rcommaaccent" unicode="&#x156;" horiz-adv-x="531" 
d="M541 56q-40 -66 -107 -66q-43 0 -70.5 18t-57.5 64l-95 145h-29v-217h-108v568h169q96 0 150 -45t54 -122q0 -102 -121 -169l87 -126q23 -35 50 -35q18 0 40 24zM339 393q0 80 -96 80h-61v-168h48q45 0 77 25t32 63zM223 -49h97q-5 -41 -30 -88.5t-53 -75.5h-51
q37 86 37 164z" />
    <glyph glyph-name="rcommaaccent" unicode="&#x157;" horiz-adv-x="287" 
d="M287 269q-28 8 -56 8q-39 0 -76 -33v-244h-100v353h95l5 -37q36 48 89 48q13 0 43 -5v-90zM57 -39h97q-5 -41 -30 -88.5t-53 -75.5h-51q37 86 37 164z" />
    <glyph glyph-name="Rcaron" unicode="&#x158;" horiz-adv-x="531" 
d="M541 56q-40 -66 -107 -66q-43 0 -70.5 18t-57.5 64l-95 145h-29v-217h-108v568h169q96 0 150 -45t54 -122q0 -102 -121 -169l87 -126q23 -35 50 -35q18 0 40 24zM339 393q0 80 -96 80h-61v-168h48q45 0 77 25t32 63zM357 769l-106 -153h-37l-106 153h78l46 -84l47 84h78z
" />
    <glyph glyph-name="rcaron" unicode="&#x159;" horiz-adv-x="287" 
d="M287 269q-28 8 -56 8q-39 0 -76 -33v-244h-100v353h95l5 -37q36 48 89 48q13 0 43 -5v-90zM290 592l-100 -185h-35l-100 185h79l38 -105l39 105h79z" />
    <glyph glyph-name="Sacute" unicode="&#x15a;" horiz-adv-x="465" 
d="M423 147q0 -76 -58.5 -120t-145.5 -44q-21 0 -42 3t-36.5 7t-33.5 10.5t-27 10.5t-22.5 10.5t-15.5 7.5v105q110 -57 175 -57q46 0 72 19t26 45q0 31 -59 68l-92 56q-27 17 -43 29t-35 32t-28 45t-9 56q0 72 54 113.5t132 41.5q76 0 155 -37v-101q-86 43 -155 43
q-36 0 -57 -18t-21 -42q0 -32 60 -68l92 -57q22 -13 36.5 -24t35 -31t31.5 -46t11 -57zM354 769l-99 -153h-62l56 153h105z" />
    <glyph glyph-name="sacute" unicode="&#x15b;" horiz-adv-x="321" 
d="M286 100q0 -53 -40 -82t-95 -29q-47 0 -113 24v89q73 -32 111 -32q44 0 44 25q0 16 -36 34q-68 35 -89 54q-33 31 -33 71q0 52 37.5 81t92.5 29q56 0 110 -25v-83q-59 28 -105 28q-43 0 -43 -24q0 -16 34 -32q70 -34 91 -53q34 -31 34 -75zM294 592l-112 -185h-61l71 185
h102z" />
    <glyph glyph-name="Scircumflex" unicode="&#x15c;" horiz-adv-x="465" 
d="M423 147q0 -76 -58.5 -120t-145.5 -44q-21 0 -42 3t-36.5 7t-33.5 10.5t-27 10.5t-22.5 10.5t-15.5 7.5v105q110 -57 175 -57q46 0 72 19t26 45q0 31 -59 68l-92 56q-27 17 -43 29t-35 32t-28 45t-9 56q0 72 54 113.5t132 41.5q76 0 155 -37v-101q-86 43 -155 43
q-36 0 -57 -18t-21 -42q0 -32 60 -68l92 -57q22 -13 36.5 -24t35 -31t31.5 -46t11 -57zM355 616h-58l-63 91l-62 -91h-58l85 154h71z" />
    <glyph glyph-name="scircumflex" unicode="&#x15d;" horiz-adv-x="321" 
d="M286 100q0 -53 -40 -82t-95 -29q-47 0 -113 24v89q73 -32 111 -32q44 0 44 25q0 16 -36 34q-68 35 -89 54q-33 31 -33 71q0 52 37.5 81t92.5 29q56 0 110 -25v-83q-59 28 -105 28q-43 0 -43 -24q0 -16 34 -32q70 -34 91 -53q34 -31 34 -75zM281 407h-62l-56 109l-55 -109
h-62l84 185h67z" />
    <glyph glyph-name="Scedilla" unicode="&#x15e;" horiz-adv-x="465" 
d="M423 147q0 -70 -50.5 -113t-128.5 -50l-4 -15q27 -3 42 -24t15 -52q0 -40 -29 -64.5t-68 -24.5q-30 0 -48 10v66q12 -9 36 -9q14 0 23.5 7.5t9.5 20.5t-10 21t-23 8q-14 0 -27 -5l17 63q-19 2 -37 6.5t-34 10.5t-26.5 10.5t-23 11t-15.5 7.5v105q110 -57 175 -57
q46 0 72 19t26 45q0 31 -59 68l-92 56q-27 17 -43 29t-35 32t-28 45t-9 56q0 72 54 113.5t132 41.5q76 0 155 -37v-101q-86 43 -155 43q-36 0 -57 -18t-21 -42q0 -32 60 -68l92 -57q22 -13 36.5 -24t35 -31t31.5 -46t11 -57z" />
    <glyph glyph-name="scedilla" unicode="&#x15f;" horiz-adv-x="321" 
d="M286 100q0 -45 -29.5 -73t-74.5 -35l-7 -22q26 -3 40.5 -23t14.5 -50q0 -39 -28.5 -63t-66.5 -24q-30 0 -48 10v66q12 -9 36 -9q13 0 22 7t9 19t-9 19t-22 7q-14 0 -27 -5l18 68q-32 5 -76 21v89q73 -32 111 -32q44 0 44 25q0 16 -36 34q-68 35 -89 54q-33 31 -33 71
q0 52 37.5 81t92.5 29q56 0 110 -25v-83q-59 28 -105 28q-43 0 -43 -24q0 -16 34 -32q70 -34 91 -53q34 -31 34 -75z" />
    <glyph glyph-name="Scaron" unicode="&#x160;" horiz-adv-x="465" 
d="M423 147q0 -76 -58.5 -120t-145.5 -44q-21 0 -42 3t-36.5 7t-33.5 10.5t-27 10.5t-22.5 10.5t-15.5 7.5v105q110 -57 175 -57q46 0 72 19t26 45q0 31 -59 68l-92 56q-27 17 -43 29t-35 32t-28 45t-9 56q0 72 54 113.5t132 41.5q76 0 155 -37v-101q-86 43 -155 43
q-36 0 -57 -18t-21 -42q0 -32 60 -68l92 -57q22 -13 36.5 -24t35 -31t31.5 -46t11 -57zM359 769l-106 -153h-37l-106 153h78l46 -84l47 84h78z" />
    <glyph glyph-name="scaron" unicode="&#x161;" horiz-adv-x="321" 
d="M286 100q0 -53 -40 -82t-95 -29q-47 0 -113 24v89q73 -32 111 -32q44 0 44 25q0 16 -36 34q-68 35 -89 54q-33 31 -33 71q0 52 37.5 81t92.5 29q56 0 110 -25v-83q-59 28 -105 28q-43 0 -43 -24q0 -16 34 -32q70 -34 91 -53q34 -31 34 -75zM281 592l-100 -185h-35
l-100 185h79l38 -105l39 105h79z" />
    <glyph glyph-name="Tcommaaccent" unicode="&#x162;" horiz-adv-x="529" 
d="M519 474h-200v-474h-22l-9 -31q27 -3 42 -24t15 -52q0 -40 -29 -64.5t-68 -24.5q-30 0 -48 10v66q12 -9 36 -9q14 0 23.5 7.5t9.5 20.5t-10 21t-23 8q-14 0 -27 -5l20 77h-19v474h-200v94h509v-94z" />
    <glyph glyph-name="tcommaaccent" unicode="&#x163;" horiz-adv-x="300" 
d="M280 8q-34 -14 -69 -18l-6 -20q26 -3 40.5 -23t14.5 -50q0 -39 -28.5 -63t-66.5 -24q-30 0 -48 10v66q12 -9 36 -9q13 0 22 7t9 19t-9 19t-22 7q-14 0 -27 -5l19 72q-80 26 -80 149v126h-66l17 82h49v139h100v-139h113l-17 -82h-96v-127q0 -69 63 -69q25 0 52 12v-79z
" />
    <glyph glyph-name="Tcaron" unicode="&#x164;" horiz-adv-x="529" 
d="M519 474h-200v-474h-109v474h-200v94h509v-94zM389 769l-106 -153h-37l-106 153h78l46 -84l47 84h78z" />
    <glyph glyph-name="tcaron" unicode="&#x165;" horiz-adv-x="312" 
d="M345 585l-74 -184h-68l43 184h99zM280 8q-46 -19 -88 -19q-57 0 -92 36.5t-35 119.5v126h-66l17 82h49v139h100v-139h113l-17 -82h-96v-127q0 -69 63 -69q25 0 52 12v-79z" />
    <glyph glyph-name="Tbar" unicode="&#x166;" horiz-adv-x="529" 
d="M519 474h-200v-136h159v-71h-159v-267h-109v267h-159v71h159v136h-200v94h509v-94z" />
    <glyph glyph-name="tbar" unicode="&#x167;" horiz-adv-x="300" 
d="M280 8q-46 -19 -88 -19q-57 0 -92 36.5t-35 119.5v12h-59l11 65h48v49h-66l17 82h49v139h100v-139h113l-17 -82h-96v-49h83l-11 -65h-72v-13q0 -69 63 -69q25 0 52 12v-79z" />
    <glyph glyph-name="Utilde" unicode="&#x168;" horiz-adv-x="610" 
d="M305 -15q-111 0 -173.5 57t-62.5 155v371h108v-355q0 -63 34 -98t94 -35t94 35t34 98v355h108v-371q0 -98 -62.5 -155t-173.5 -57zM452 737q-3 -42 -27 -70t-63 -28q-26 0 -56.5 15.5t-43.5 15.5q-28 0 -31 -30h-72q3 43 25.5 70.5t64.5 27.5q23 0 55.5 -15.5t47.5 -15.5
q11 0 19.5 8t8.5 22h72z" />
    <glyph glyph-name="utilde" unicode="&#x169;" horiz-adv-x="441" 
d="M386 0h-92l-6 23q-39 -34 -108 -34q-54 0 -89.5 38.5t-35.5 112.5v213h100v-216q0 -30 16.5 -46t43.5 -16q31 0 71 30v248h100v-353zM363 528q-3 -44 -26 -73t-61 -29q-25 0 -53.5 19.5t-40.5 19.5q-25 0 -28 -34h-72q3 45 24.5 73.5t62.5 28.5q22 0 52.5 -19.5
t44.5 -19.5q10 0 17.5 9t7.5 25h72z" />
    <glyph glyph-name="Umacron" unicode="&#x16a;" horiz-adv-x="610" 
d="M305 -15q-111 0 -173.5 57t-62.5 155v371h108v-355q0 -63 34 -98t94 -35t94 35t34 98v355h108v-371q0 -98 -62.5 -155t-173.5 -57zM452 652h-293v70h293v-70z" />
    <glyph glyph-name="umacron" unicode="&#x16b;" horiz-adv-x="441" 
d="M386 0h-92l-6 23q-39 -34 -108 -34q-54 0 -89.5 38.5t-35.5 112.5v213h100v-216q0 -30 16.5 -46t43.5 -16q31 0 71 30v248h100v-353zM351 443h-258v72h258v-72z" />
    <glyph glyph-name="Ubreve" unicode="&#x16c;" horiz-adv-x="610" 
d="M305 -15q-111 0 -173.5 57t-62.5 155v371h108v-355q0 -63 34 -98t94 -35t94 35t34 98v355h108v-371q0 -98 -62.5 -155t-173.5 -57zM439 760q0 -60 -39.5 -97.5t-93.5 -37.5q-55 0 -94.5 37.5t-39.5 97.5h70q0 -32 18.5 -52t44.5 -20q27 0 45.5 20t18.5 52h70z" />
    <glyph glyph-name="ubreve" unicode="&#x16d;" horiz-adv-x="441" 
d="M386 0h-92l-6 23q-39 -34 -108 -34q-54 0 -89.5 38.5t-35.5 112.5v213h100v-216q0 -30 16.5 -46t43.5 -16q31 0 71 30v248h100v-353zM352 557q0 -62 -39 -101.5t-92 -39.5q-54 0 -93 39t-39 101v1h62q0 -31 20.5 -51t48.5 -20q29 0 49.5 20t20.5 51h62z" />
    <glyph glyph-name="Uring" unicode="&#x16e;" horiz-adv-x="610" 
d="M305 -15q-111 0 -173.5 57t-62.5 155v371h108v-355q0 -63 34 -98t94 -35t94 35t34 98v355h108v-371q0 -98 -62.5 -155t-173.5 -57zM401 707q0 -37 -28 -63t-67 -26q-40 0 -68 25.5t-28 62.5t28 63.5t68 26.5q39 0 67 -26t28 -63zM348 707q0 17 -12.5 28.5t-29.5 11.5
t-29.5 -11.5t-12.5 -28.5t12.5 -28.5t29.5 -11.5t29.5 11.5t12.5 28.5z" />
    <glyph glyph-name="uring" unicode="&#x16f;" horiz-adv-x="441" 
d="M386 0h-92l-6 23q-39 -34 -108 -34q-54 0 -89.5 38.5t-35.5 112.5v213h100v-216q0 -30 16.5 -46t43.5 -16q31 0 71 30v248h100v-353zM315 498q0 -38 -27.5 -64.5t-66.5 -26.5q-40 0 -67.5 26t-27.5 64t27.5 65t67.5 27q39 0 66.5 -26.5t27.5 -64.5zM262 498q0 18 -12 30
t-29 12t-29 -12t-12 -30t12 -30t29 -12t29 12t12 30z" />
    <glyph glyph-name="Uhungarumlaut" unicode="&#x170;" horiz-adv-x="610" 
d="M305 -15q-111 0 -173.5 57t-62.5 155v371h108v-355q0 -63 34 -98t94 -35t94 35t34 98v355h108v-371q0 -98 -62.5 -155t-173.5 -57zM366 769l-111 -153h-58l73 153h96zM498 769l-111 -153h-58l73 153h96z" />
    <glyph glyph-name="uhungarumlaut" unicode="&#x171;" horiz-adv-x="441" 
d="M386 0h-92l-6 23q-39 -34 -108 -34q-54 0 -89.5 38.5t-35.5 112.5v213h100v-216q0 -30 16.5 -46t43.5 -16q31 0 71 30v248h100v-353zM292 592l-117 -185h-56l74 185h99zM422 592l-117 -185h-56l74 185h99z" />
    <glyph glyph-name="Uogonek" unicode="&#x172;" horiz-adv-x="610" 
d="M381 -119v-72q-20 -13 -54 -13q-48 0 -76.5 27.5t-28.5 73.5q0 50 39 91q-92 10 -142 65.5t-50 143.5v371h108v-355q0 -63 34 -98t94 -35t94 35t34 98v355h108v-371q0 -81 -43 -135t-122 -70q-31 -10 -50 -33.5t-19 -48.5q0 -18 10.5 -27.5t27.5 -9.5q18 0 36 8z" />
    <glyph glyph-name="uogonek" unicode="&#x173;" horiz-adv-x="441" 
d="M391 -102v-72q-20 -13 -51 -13q-45 0 -72.5 27.5t-27.5 70.5q0 59 52 95l-4 17q-39 -34 -108 -34q-54 0 -89.5 38.5t-35.5 112.5v213h100v-216q0 -30 16.5 -46t43.5 -16q31 0 71 30v248h100v-353q-29 -10 -46 -30t-17 -44q0 -16 10 -26t25 -10q21 0 33 8z" />
    <glyph glyph-name="Ydieresis" unicode="&#x178;" horiz-adv-x="498" 
d="M249 329l121 239h120l-187 -343v-225h-108v226l-187 342h120zM399 699l-66 -65l-65 65l65 66zM229 699l-65 -65l-66 65l66 66z" />
    <glyph glyph-name="Zacute" unicode="&#x179;" horiz-adv-x="541" 
d="M521 0h-501v54l337 423h-323v90h480v-55l-336 -420h343v-92zM388 769l-99 -153h-62l56 153h105z" />
    <glyph glyph-name="zacute" unicode="&#x17a;" horiz-adv-x="335" 
d="M310 79v-79h-285v46l155 228h-151v78h277v-45l-154 -228h158zM293 592l-112 -185h-61l71 185h102z" />
    <glyph glyph-name="Zdotaccent" unicode="&#x17b;" horiz-adv-x="541" 
d="M521 0h-501v54l337 423h-323v90h480v-55l-336 -420h343v-92zM334 699l-65 -65l-66 65l65 66z" />
    <glyph glyph-name="zdotaccent" unicode="&#x17c;" horiz-adv-x="335" 
d="M310 79v-79h-285v46l155 228h-151v78h277v-45l-154 -228h158zM229 490l-65 -65l-66 65l65 66z" />
    <glyph glyph-name="Zcaron" unicode="&#x17d;" horiz-adv-x="541" 
d="M521 0h-501v54l337 423h-323v90h480v-55l-336 -420h343v-92zM393 769l-106 -153h-37l-106 153h78l46 -84l47 84h78z" />
    <glyph glyph-name="zcaron" unicode="&#x17e;" horiz-adv-x="335" 
d="M310 79v-79h-285v46l155 228h-151v78h277v-45l-154 -228h158zM287 592l-100 -185h-35l-100 185h79l38 -105l39 105h79z" />
    <glyph glyph-name="florin" unicode="&#x192;" horiz-adv-x="463" 
d="M483 520l-56 -56q-34 34 -65 34q-24 0 -41.5 -16t-22.5 -47l-15 -82h96v-83h-111l-52 -291q-17 -92 -72.5 -138.5t-124.5 -46.5q-92 0 -161 69l63 63q11 -12 38.5 -27.5t53.5 -15.5q33 0 63.5 23.5t39.5 76.5l51 287h-76v83h91l18 93q13 72 55 105.5t98 33.5
q18 0 34.5 -4t27 -8t23.5 -13.5t18 -13.5t15.5 -14.5z" />
    <glyph glyph-name="AEacute" unicode="&#x1fc;" horiz-adv-x="754" 
d="M712 0h-356v160h-149l-83 -160h-124l320 568h379v-95h-235v-149h176v-94h-176v-135h248v-95zM356 243v203l-106 -203h106zM507 769l-99 -153h-62l56 153h105z" />
    <glyph glyph-name="aeacute" unicode="&#x1fd;" horiz-adv-x="616" 
d="M160 -10q-54 0 -89.5 25.5t-35.5 76.5q0 95 127 126l78 19q-2 18 -18.5 29.5t-42.5 11.5q-74 0 -121 -49v87q43 48 127 48q71 0 114 -49q51 49 113 49q68 0 112.5 -47t44.5 -120v-47h-239q9 -34 37.5 -57.5t70.5 -23.5q51 0 126 30v-79q-62 -31 -135 -31q-83 0 -142 59
q-39 -58 -127 -58zM435 592l-112 -185h-61l71 185h102zM251 102q-10 24 -10 55v17l-60 -16q-50 -13 -50 -52q0 -40 47 -40q37 0 73 36zM479 213q0 28 -18.5 50.5t-48.5 22.5q-31 0 -52.5 -21t-26.5 -52h146z" />
    <glyph glyph-name="Scommaaccent" unicode="&#x218;" horiz-adv-x="465" 
d="M423 147q0 -76 -58.5 -120t-145.5 -44q-21 0 -42 3t-36.5 7t-33.5 10.5t-27 10.5t-22.5 10.5t-15.5 7.5v105q110 -57 175 -57q46 0 72 19t26 45q0 31 -59 68l-92 56q-27 17 -43 29t-35 32t-28 45t-9 56q0 72 54 113.5t132 41.5q76 0 155 -37v-101q-86 43 -155 43
q-36 0 -57 -18t-21 -42q0 -32 60 -68l92 -57q22 -13 36.5 -24t35 -31t31.5 -46t11 -57zM169 -49h97q-5 -41 -30 -88.5t-53 -75.5h-51q37 86 37 164z" />
    <glyph glyph-name="scommaaccent" unicode="&#x219;" horiz-adv-x="321" 
d="M286 100q0 -53 -40 -82t-95 -29q-47 0 -113 24v89q73 -32 111 -32q44 0 44 25q0 16 -36 34q-68 35 -89 54q-33 31 -33 71q0 52 37.5 81t92.5 29q56 0 110 -25v-83q-59 28 -105 28q-43 0 -43 -24q0 -16 34 -32q70 -34 91 -53q34 -31 34 -75zM107 -39h97q-5 -41 -30 -88.5
t-53 -75.5h-51q37 86 37 164z" />
    <glyph glyph-name="uni021A" unicode="&#x21a;" horiz-adv-x="529" 
d="M519 474h-200v-474h-109v474h-200v94h509v-94zM215 -49h97q-5 -41 -30 -88.5t-53 -75.5h-51q37 86 37 164z" />
    <glyph glyph-name="uni021B" unicode="&#x21b;" horiz-adv-x="300" 
d="M280 8q-46 -19 -88 -19q-57 0 -92 36.5t-35 119.5v126h-66l17 82h49v139h100v-139h113l-17 -82h-96v-127q0 -69 63 -69q25 0 52 12v-79zM136 -39h97q-5 -41 -30 -88.5t-53 -75.5h-51q37 86 37 164z" />
    <glyph glyph-name="circumflex" unicode="&#x2c6;" horiz-adv-x="333" 
d="M284 407h-62l-56 109l-55 -109h-62l84 185h67z" />
    <glyph glyph-name="caron" unicode="&#x2c7;" horiz-adv-x="333" 
d="M284 592l-100 -185h-35l-100 185h79l38 -105l39 105h79z" />
    <glyph glyph-name="breve" unicode="&#x2d8;" horiz-adv-x="333" 
d="M298 557q0 -62 -39 -101.5t-92 -39.5q-54 0 -93 39t-39 101v1h62q0 -31 20.5 -51t48.5 -20q29 0 49.5 20t20.5 51h62z" />
    <glyph glyph-name="dotaccent" unicode="&#x2d9;" horiz-adv-x="333" 
d="M232 490l-65 -65l-66 65l65 66z" />
    <glyph glyph-name="ring" unicode="&#x2da;" horiz-adv-x="333" 
d="M261 498q0 -38 -27.5 -64.5t-66.5 -26.5q-40 0 -67.5 26t-27.5 64t27.5 65t67.5 27q39 0 66.5 -26.5t27.5 -64.5zM208 498q0 18 -12 30t-29 12t-29 -12t-12 -30t12 -30t29 -12t29 12t12 30z" />
    <glyph glyph-name="ogonek" unicode="&#x2db;" horiz-adv-x="333" 
d="M242 -102v-72q-20 -13 -51 -13q-45 0 -72.5 27.5t-27.5 70.5q0 36 22.5 66.5t58.5 44.5l65 -22q-29 -10 -46 -30t-17 -44q0 -16 10 -26t25 -10q21 0 33 8z" />
    <glyph glyph-name="tilde" unicode="&#x2dc;" horiz-adv-x="333" 
d="M307 528q-3 -44 -26 -73t-61 -29q-25 0 -53.5 19.5t-40.5 19.5q-25 0 -28 -34h-72q3 45 24.5 73.5t62.5 28.5q22 0 52.5 -19.5t44.5 -19.5q10 0 17.5 9t7.5 25h72z" />
    <glyph glyph-name="hungarumlaut" unicode="&#x2dd;" horiz-adv-x="333" 
d="M188 592l-117 -185h-56l74 185h99zM318 592l-117 -185h-56l74 185h99z" />
    <glyph glyph-name="endash" unicode="&#x2013;" horiz-adv-x="380" 
d="M380 174h-380v68h380v-68z" />
    <glyph glyph-name="emdash" unicode="&#x2014;" horiz-adv-x="760" 
d="M760 174h-760v68h760v-68z" />
    <glyph glyph-name="quoteleft" unicode="&#x2018;" horiz-adv-x="248" 
d="M201 365l-71 -72l-22 18q-63 54 -63 121q0 37 15 68t33 48.5t43.5 31.5t37 18t23.5 7v-20q-65 -41 -65 -112q0 -24 17 -51t35 -42z" />
    <glyph glyph-name="quoteright" unicode="&#x2019;" horiz-adv-x="248" 
d="M203 466q0 -37 -15 -68t-33 -48.5t-43.5 -31.5t-37 -18t-23.5 -7v20q65 41 65 112q0 24 -17 51t-35 42l-17 15l71 72l22 -18q63 -54 63 -121z" />
    <glyph glyph-name="quotesinglbase" unicode="&#x201a;" horiz-adv-x="250" 
d="M203 0q0 -37 -15 -68t-33 -48.5t-43.5 -31.5t-37 -18t-23.5 -7v20q65 41 65 112q0 24 -17 51t-35 42l-17 15l71 72l22 -18q63 -54 63 -121z" />
    <glyph glyph-name="quotedblleft" unicode="&#x201c;" horiz-adv-x="443" 
d="M396 365l-71 -72l-22 18q-63 54 -63 121q0 37 15 68t33 48.5t43.5 31.5t37 18t23.5 7v-20q-65 -41 -65 -112q0 -24 17.5 -51t34.5 -42zM201 365l-71 -72l-22 18q-63 54 -63 121q0 37 15 68t33 48.5t43.5 31.5t37 18t23.5 7v-20q-65 -41 -65 -112q0 -24 17 -51t35 -42z
" />
    <glyph glyph-name="quotedblright" unicode="&#x201d;" horiz-adv-x="443" 
d="M398 466q0 -37 -15 -68t-33 -48.5t-43.5 -31.5t-37 -18t-23.5 -7v20q65 41 65 112q0 24 -17.5 51t-34.5 42l-17 15l71 72l22 -18q63 -54 63 -121zM203 466q0 -37 -15 -68t-33 -48.5t-43.5 -31.5t-37 -18t-23.5 -7v20q65 41 65 112q0 24 -17 51t-35 42l-17 15l71 72
l22 -18q63 -54 63 -121z" />
    <glyph glyph-name="quotedblbase" unicode="&#x201e;" horiz-adv-x="443" 
d="M398 0q0 -37 -15 -68t-33 -48.5t-43.5 -31.5t-37 -18t-23.5 -7v20q65 41 65 112q0 24 -17.5 51t-34.5 42l-17 15l71 72l22 -18q63 -54 63 -121zM203 0q0 -37 -15 -68t-33 -48.5t-43.5 -31.5t-37 -18t-23.5 -7v20q65 41 65 112q0 24 -17 51t-35 42l-17 15l71 72l22 -18
q63 -54 63 -121z" />
    <glyph glyph-name="dagger" unicode="&#x2020;" horiz-adv-x="383" 
d="M333 278h-95l-13 -488h-67l-13 488h-95v105h91l-7 185h115l-7 -185h91v-105z" />
    <glyph glyph-name="daggerdbl" unicode="&#x2021;" horiz-adv-x="383" 
d="M333 -25h-92l7 -185h-113l7 185h-92v105h95l4 99l-4 99h-95v105h92l-7 185h113l-7 -185h92v-105h-95l-4 -99l4 -99h95v-105z" />
    <glyph glyph-name="bullet" unicode="&#x2022;" horiz-adv-x="377" 
d="M327 286l-138 -139l-139 139l139 139z" />
    <glyph glyph-name="ellipsis" unicode="&#x2026;" horiz-adv-x="750" 
d="M703 61l-78 -78l-78 78l78 78zM453 61l-78 -78l-78 78l78 78zM203 61l-78 -78l-78 78l78 78z" />
    <glyph glyph-name="perthousand" unicode="&#x2030;" horiz-adv-x="859" 
d="M829 102q0 -48 -35.5 -81t-86.5 -33t-86 33.5t-35 80.5q0 49 35 82.5t86 33.5q52 0 87 -33.5t35 -82.5zM272 470q0 -48 -35 -81.5t-86 -33.5t-86 33.5t-35 81.5t35 81.5t86 33.5t86 -33.5t35 -81.5zM435 585l-256 -602h-46l255 602h47zM537 102q0 -48 -35 -81t-86 -33
t-86 33.5t-35 80.5q0 49 34.5 82.5t86.5 33.5t86.5 -33.5t34.5 -82.5zM764 102q0 23 -16 38.5t-41 15.5t-40.5 -15.5t-15.5 -38.5q0 -22 16 -37t40 -15q25 0 41 15t16 37zM208 470q0 23 -16 38t-41 15t-40.5 -15t-15.5 -38q0 -22 16 -37.5t40 -15.5t40.5 15.5t16.5 37.5z
M473 102q0 23 -16 38.5t-41 15.5t-40.5 -15.5t-15.5 -38.5q0 -22 16 -37t40 -15q25 0 41 15t16 37z" />
    <glyph glyph-name="guilsinglleft" unicode="&#x2039;" horiz-adv-x="267" 
d="M227 432l-116 -176l116 -175h-77l-120 174l121 177h76z" />
    <glyph glyph-name="guilsinglright" unicode="&#x203a;" horiz-adv-x="267" 
d="M237 256l-121 -175h-76l116 175l-116 176h76z" />
    <glyph glyph-name="fraction" unicode="&#x2044;" horiz-adv-x="58" 
d="M257 579l-416 -587h-40l416 587h40z" />
    <glyph glyph-name="zerosuperior" unicode="&#x2070;" horiz-adv-x="331" 
d="M283 567q0 -64 -30.5 -114t-86.5 -50q-57 0 -87.5 50t-30.5 114t30.5 114.5t87.5 50.5q56 0 86.5 -50.5t30.5 -114.5zM214 567q0 44 -15 72.5t-33 28.5q-19 0 -34 -28.5t-15 -72.5t15 -72.5t34 -28.5q18 0 33 28.5t15 72.5z" />
    <glyph glyph-name="foursuperior" unicode="&#x2074;" horiz-adv-x="300" 
d="M274 486h-43v-74h-69v74h-132l-12 30l155 207h58v-176h43v-61zM162 547v85l-16 -25l-46 -60h62z" />
    <glyph glyph-name="fivesuperior" unicode="&#x2075;" horiz-adv-x="310" 
d="M262 514q0 -46 -36 -78.5t-88 -32.5q-58 0 -109 39l40 50q37 -29 64 -29q24 0 39 15.5t15 35.5t-15 35.5t-39 15.5q-21 0 -42 -14l-32 8l13 164h178v-62h-121l-3 -38q12 2 18 2q50 0 84 -32.5t34 -78.5z" />
    <glyph glyph-name="sixsuperior" unicode="&#x2076;" horiz-adv-x="335" 
d="M287 675q-95 -14 -136 -59q2 0 6 0.5t7 0.5q47 0 83.5 -29.5t36.5 -78.5q0 -44 -34.5 -75t-80.5 -31q-58 0 -89.5 37.5t-31.5 87.5q0 83 67.5 138.5t171.5 63.5v-55zM216 509q0 21 -15.5 36.5t-41.5 15.5q-23 0 -40 -8q-3 -7 -3 -24q0 -30 14 -48t40 -18q20 0 33 14
t13 32z" />
    <glyph glyph-name="sevensuperior" unicode="&#x2077;" horiz-adv-x="274" 
d="M252 698l-130 -286h-75l120 250h-138v61h207z" />
    <glyph glyph-name="eightsuperior" unicode="&#x2078;" horiz-adv-x="312" 
d="M264 496q0 -40 -31.5 -66.5t-76.5 -26.5t-76.5 26.5t-31.5 65.5q0 47 49 80q-44 29 -44 73q0 37 30 60.5t73 23.5q42 0 72.5 -23.5t30.5 -60.5q0 -42 -44 -71q49 -34 49 -81zM191 645q0 10 -9 18.5t-26 8.5t-26.5 -8.5t-9.5 -18.5q0 -20 37 -40q34 20 34 40zM195 499
q0 7 -6 17q-12 19 -35 32q-38 -25 -38 -49q0 -15 11 -25t29 -11q17 -1 28 10t11 26z" />
    <glyph glyph-name="ninesuperior" unicode="&#x2079;" horiz-adv-x="335" 
d="M287 607q0 -83 -67.5 -139t-171.5 -64v56q95 14 136 58h-12q-47 0 -83 29t-36 79q0 44 33.5 75t80.5 31q58 0 89 -37.5t31 -87.5zM220 606q0 30 -14.5 48t-40.5 18q-19 0 -32.5 -14t-13.5 -32q0 -21 16 -36.5t41 -15.5q26 0 41 7q3 18 3 25z" />
    <glyph glyph-name="zeroinferior" unicode="&#x2080;" horiz-adv-x="331" 
d="M283 0q0 -64 -30.5 -114t-86.5 -50q-57 0 -87.5 50t-30.5 114t30.5 114.5t87.5 50.5q56 0 86.5 -50.5t30.5 -114.5zM214 0q0 44 -15 72.5t-33 28.5q-19 0 -34 -28.5t-15 -72.5t15 -72.5t34 -28.5q18 0 33 28.5t15 72.5z" />
    <glyph glyph-name="oneinferior" unicode="&#x2081;" horiz-adv-x="205" 
d="M138 -155h-71v304l71 21v-325z" />
    <glyph glyph-name="twoinferior" unicode="&#x2082;" horiz-adv-x="315" 
d="M267 -155h-221v32l103 109q46 48 46 78q0 19 -11 29.5t-31 10.5q-43 0 -47 -54h-66q3 53 35.5 84.5t78.5 31.5q48 0 79.5 -28.5t31.5 -73.5q0 -48 -60 -113q-4 -5 -22.5 -22.5t-23.5 -22.5h108v-61z" />
    <glyph glyph-name="threeinferior" unicode="&#x2083;" horiz-adv-x="297" 
d="M249 -54q0 -49 -34.5 -79.5t-82.5 -30.5q-61 0 -103 42l41 48q33 -28 59 -28q20 0 34.5 13t14.5 34q0 20 -13.5 30.5t-33.5 10.5q-12 0 -32 -10l-30 39q73 39 95 78h-119v63h198v-35q-2 -13 -7.5 -25.5t-13 -23.5t-13 -17.5t-14 -15l-9.5 -9.5q63 -26 63 -84z" />
    <glyph glyph-name="fourinferior" unicode="&#x2084;" horiz-adv-x="300" 
d="M274 -81h-43v-74h-69v74h-132l-12 30l155 207h58v-176h43v-61zM162 -20v85l-16 -25l-46 -60h62z" />
    <glyph glyph-name="fiveinferior" unicode="&#x2085;" horiz-adv-x="310" 
d="M262 -53q0 -46 -36 -78.5t-88 -32.5q-58 0 -109 39l40 50q37 -29 64 -29q24 0 39 15.5t15 35.5t-15 35.5t-39 15.5q-21 0 -42 -14l-32 8l13 164h178v-62h-121l-3 -38q12 2 18 2q50 0 84 -32.5t34 -78.5z" />
    <glyph glyph-name="sixinferior" unicode="&#x2086;" horiz-adv-x="335" 
d="M287 108q-95 -14 -136 -59q2 0 6 0.5t7 0.5q47 0 83.5 -29.5t36.5 -78.5q0 -44 -34.5 -75t-80.5 -31q-58 0 -89.5 37.5t-31.5 87.5q0 83 67.5 138.5t171.5 63.5v-55zM216 -58q0 21 -15.5 36.5t-41.5 15.5q-23 0 -40 -8q-3 -8 -3 -24q0 -30 14 -48t40 -18q20 0 33 14
t13 32z" />
    <glyph glyph-name="seveninferior" unicode="&#x2087;" horiz-adv-x="274" 
d="M252 131l-130 -286h-75l120 250h-138v61h207z" />
    <glyph glyph-name="eightinferior" unicode="&#x2088;" horiz-adv-x="312" 
d="M264 -71q0 -40 -31.5 -66.5t-76.5 -26.5t-76.5 26.5t-31.5 65.5q0 47 49 80q-44 29 -44 73q0 37 30 60.5t73 23.5q42 0 72.5 -23.5t30.5 -60.5q0 -42 -44 -71q49 -34 49 -81zM191 78q0 10 -9 18.5t-26 8.5t-26.5 -8.5t-9.5 -18.5q0 -20 37 -40q34 20 34 40zM195 -68
q0 6 -6 17q-12 19 -35 32q-38 -25 -38 -49q0 -15 11 -25t29 -11q17 -1 28 10t11 26z" />
    <glyph glyph-name="nineinferior" unicode="&#x2089;" horiz-adv-x="335" 
d="M287 40q0 -83 -67.5 -139t-171.5 -64v56q95 14 136 58h-12q-47 0 -83 29t-36 79q0 44 33.5 75t80.5 31q58 0 89 -37.5t31 -87.5zM220 39q0 30 -14.5 48t-40.5 18q-19 0 -32.5 -14t-13.5 -32q0 -21 16 -36.5t41 -15.5q26 0 41 7q3 18 3 25z" />
    <glyph glyph-name="Euro" unicode="&#x20ac;" horiz-adv-x="641" 
d="M601 544l-24 -97q-100 43 -171 43q-64 0 -117 -30.5t-80 -83.5h350l-13 -53h-355q-4 -17 -4 -39q0 -10 2 -28h340l-13 -53h-313q25 -56 77 -90t115 -34q95 0 198 49v-105q-95 -40 -197 -40q-112 0 -199.5 60.5t-115.5 159.5h-51v53h41q0 4 -0.5 13t-0.5 14q0 21 3 40h-43
v53h55q31 94 116 151.5t189 57.5q97 0 211 -41z" />
    <glyph glyph-name="trademark" unicode="&#x2122;" horiz-adv-x="829" 
d="M799 199h-85v169l-84 -169h-40l-85 169v-169h-85v369h75l115 -231l115 231h74v-369zM367 495h-123v-296h-90v296h-124v73h337v-73z" />
    <glyph glyph-name="minus" unicode="&#x2212;" horiz-adv-x="515" 
d="M465 221h-415v68h415v-68z" />
    <glyph glyph-name="s_t" unicode="&#xfb06;" horiz-adv-x="614" 
d="M594 8q-43 -19 -88 -19q-57 0 -92 36.5t-35 119.5v126h-66l17 82h49v53q0 34 -23.5 57.5t-56.5 23.5q-34 0 -57.5 -24t-23.5 -57q0 -55 67 -84l-15 -64q-57 26 -100 26t-43 -24q0 -17 34 -32q32 -15 49.5 -24.5t37.5 -25t29 -35t9 -43.5q0 -53 -40 -82t-95 -29
q-47 0 -113 24v89q73 -32 111 -32q44 0 44 25q0 17 -36 34q-25 12 -35 17.5t-30.5 18.5t-30 24t-18 28.5t-8.5 36.5q0 49 34 78t85 32q-8 20 -8 49q0 69 50 116.5t119 47.5t117 -49.5t48 -119.5l-1 -55h113l-17 -82h-96v-127q0 -69 64 -69q21 0 51 13v-80z" />
    <glyph glyph-name="CR" horiz-adv-x="180" 
 />
    <glyph glyph-name="apple" horiz-adv-x="420" 
d="M195 285l-65 -65l-65 65l65 65zM355 285l-65 -65l-65 65l65 65zM275 205l-65 -65l-65 65l65 65zM275 365l-65 -65l-65 65l65 65z" />
    <glyph glyph-name="c_t" horiz-adv-x="681" 
d="M661 8q-46 -19 -88 -19q-57 0 -92 36.5t-35 119.5v126h-66l17 82h49v53q0 34 -23.5 57.5t-57.5 23.5t-57.5 -24t-23.5 -57q0 -55 67 -84l-15 -70q-46 24 -92 24q-52 0 -83 -28t-31 -72q0 -43 31.5 -70.5t82.5 -27.5q45 0 111 33v-87q-66 -35 -128 -35q-83 0 -140 52.5
t-57 133.5q0 79 54 132.5t137 55.5q-8 21 -8 50q0 68 49.5 116t118.5 48t117 -49.5t48 -119.5v-55h113l-17 -82h-96v-127q0 -69 63 -69q22 0 52 13v-80z" />
    <glyph glyph-name="f_b" horiz-adv-x="740" 
d="M610 176q0 43 -30 73t-74 30q-40 0 -70 -27v-152q31 -26 70 -26q44 0 74 29.5t30 72.5zM336 464q-11 12 -34 24.5t-49 12.5q-39 0 -65 -28.5t-26 -76.5v-43h115l-17 -82h-98v-271h-100v271h-63l17 82h46v44q0 87 57 137.5t134 50.5q95 0 183 -85v-164q42 28 94 28
q74 0 127 -55t53 -133q0 -77 -53 -132t-127 -55q-59 0 -105 35l-6 -24h-83v464z" />
    <glyph glyph-name="f_f_b" horiz-adv-x="1027" 
d="M897 176q0 43 -30 73t-74 30q-40 0 -70 -27v-152q31 -26 70 -26q44 0 74 29.5t30 72.5zM353 448q-48 53 -100 53q-39 0 -65 -28.5t-26 -76.5v-43h185v44q0 29 6 51zM623 465q-39 36 -82 36q-39 0 -66.5 -28.5t-27.5 -76.5v-43h115l-17 -82h-98v-271h-100v271h-185v-271
h-100v271h-63l17 82h46v44q0 87 57 137.5t134 50.5q75 0 143 -59q56 59 144 59q95 0 183 -85v-164q42 28 94 28q74 0 127 -55t53 -133q0 -77 -53 -132t-127 -55q-59 0 -105 35l-6 -24h-83v465z" />
    <glyph glyph-name="f_f_h" horiz-adv-x="1019" 
d="M353 448q-48 53 -100 53q-39 0 -65 -28.5t-26 -76.5v-43h185v44q0 29 6 51zM723 322q46 42 111 42q58 0 94 -37.5t36 -108.5v-218h-100v216q0 30 -16.5 46t-43.5 16q-22 0 -46 -14t-35 -25v-239h-100v465q-39 36 -82 36q-40 0 -67 -28.5t-27 -76.5v-43h115l-17 -82h-98
v-271h-100v271h-185v-271h-100v271h-63l17 82h46v44q0 87 57 137.5t134 50.5q75 0 143 -59q56 59 144 59q95 0 183 -85v-178z" />
    <glyph glyph-name="f_f_t" horiz-adv-x="861" 
d="M353 448q-48 53 -100 53q-39 0 -65 -28.5t-26 -76.5v-43h185v44q0 29 6 51zM725 353h114l-17 -82h-96v-123q0 -69 63 -69q20 0 52 13v-84q-46 -19 -89 -19q-57 0 -93 36.5t-36 119.5v125h-176v-270h-100v270h-185v-270h-100v270h-63l17 83h46v44q0 87 57 137.5t134 50.5
q75 0 143 -59q56 59 144 59q95 0 185 -87v-145zM623 353v112q-39 36 -82 36q-39 0 -66.5 -28.5t-27.5 -76.5v-43h176z" />
    <glyph glyph-name="f_f_y" horiz-adv-x="919" 
d="M348 453q-45 48 -95 48q-37 0 -64 -27.5t-27 -74.5v-46h185v72q0 20 1 28zM657 353l79 -240l79 240h99l-133 -353l-82 -227h-96l83 227l-98 271h-141v-271h-100v271h-185v-271h-100v271h-63l17 82h46v44q0 87 57 137.5t134 50.5q69 0 132 -50q44 50 114 50t119 -53
l-59 -59q-20 28 -50 28q-27 0 -44.5 -18.5t-17.5 -51.5v-78h210z" />
    <glyph glyph-name="f_h" horiz-adv-x="734" 
d="M338 465q-10 11 -34.5 23.5t-50.5 12.5q-39 0 -65 -28.5t-26 -76.5v-43h115l-17 -82h-98v-271h-100v271h-63l17 82h46v44q0 87 57 137.5t134 50.5q55 0 105 -27.5t80 -57.5v-178q46 42 111 42q58 0 94 -37.5t36 -108.5v-218h-100v216q0 30 -16.5 46t-43.5 16
q-22 0 -46 -14t-35 -25v-239h-100v465z" />
    <glyph glyph-name="f_t" horiz-adv-x="571" 
d="M551 8q-43 -19 -88 -19q-57 0 -92 36.5t-35 119.5v126h-174v-271h-100v271h-63l17 82h46v44q0 87 57 137.5t134 50.5q55 0 104 -28t79 -59v-145h113l-17 -82h-96v-128q0 -68 64 -68q24 0 51 12v-79zM336 353v111q-11 12 -34 24.5t-49 12.5q-39 0 -65 -28.5t-26 -76.5v-43
h174z" />
    <glyph glyph-name="f_y" horiz-adv-x="634" 
d="M303 271h-141v-271h-100v271h-63l17 82h46v72q0 74 44.5 117t107.5 43q70 0 119 -53l-59 -59q-20 28 -50 28q-27 0 -44.5 -18.5t-17.5 -51.5v-78h210l79 -240l79 240h99l-133 -353l-82 -227h-96l83 227z" />
    <glyph glyph-name="g_i" horiz-adv-x="630" 
d="M279 -136q0 33 -32 42l-100 31q-40 -25 -40 -60q0 -27 26 -46t60 -19q38 0 62 16t24 36zM267 207q0 32 -21 52.5t-52 20.5t-52.5 -20.5t-21.5 -52.5t21.5 -52.5t52.5 -20.5t52 20.5t21 52.5zM580 486l-65 -65l-66 66l65 65zM565 353v-353h-100v275h-122q16 -32 16 -68
q0 -68 -48 -112.5t-117 -44.5q-20 0 -29 2l-20 -29l122 -36q48 -14 76 -45.5t28 -77.5q0 -52 -50.5 -90.5t-131.5 -38.5q-70 0 -119.5 36.5t-49.5 94.5q0 53 49 93l-51 17l78 103q-67 46 -67 128q0 68 48 112.5t117 44.5q63 0 108 -37l20 26h243z" />
    <glyph glyph-name="g_y" horiz-adv-x="765" 
d="M279 -136q0 33 -32 42l-100 31q-40 -25 -40 -60q0 -27 26 -46t60 -19q38 0 62 16t24 36zM267 207q0 32 -21 52.5t-52 20.5t-52.5 -20.5t-21.5 -52.5t21.5 -52.5t52.5 -20.5t52 20.5t21 52.5zM503 353l79 -240l79 240h99l-133 -353l-82 -227h-96l83 227l-100 275h-89
q16 -32 16 -68q0 -68 -48 -112.5t-117 -44.5q-20 0 -29 2l-20 -29l122 -36q48 -14 76 -45.5t28 -77.5q0 -52 -50.5 -90.5t-131.5 -38.5q-70 0 -119.5 36.5t-49.5 94.5q0 53 49 93l-51 17l78 103q-67 46 -67 128q0 68 48 112.5t117 44.5q63 0 108 -37l20 26h181z" />
    <glyph glyph-name="zero.nfra" horiz-adv-x="331" 
d="M283 412q0 -64 -30.5 -114t-86.5 -50q-57 0 -87.5 50t-30.5 114t30.5 114.5t87.5 50.5q56 0 86.5 -50.5t30.5 -114.5zM214 412q0 44 -15 72.5t-33 28.5q-19 0 -34 -28.5t-15 -72.5t15 -72.5t34 -28.5q18 0 33 28.5t15 72.5z" />
    <glyph glyph-name="one.nfra" horiz-adv-x="205" 
d="M138 257h-71v304l71 21v-325z" />
    <glyph glyph-name="two.nfra" horiz-adv-x="315" 
d="M267 257h-221v32l103 109q46 48 46 78q0 19 -11 29.5t-31 10.5q-43 0 -47 -54h-66q3 53 35.5 84.5t78.5 31.5q48 0 79.5 -28.5t31.5 -73.5q0 -48 -60 -113q-4 -5 -22.5 -22.5t-23.5 -22.5h108v-61z" />
    <glyph glyph-name="three.nfra" horiz-adv-x="297" 
d="M249 358q0 -49 -34.5 -79.5t-82.5 -30.5q-61 0 -103 42l41 48q33 -28 59 -28q20 0 34.5 13t14.5 34q0 20 -13.5 30.5t-33.5 10.5q-12 0 -32 -10l-30 39q73 39 95 78h-119v63h198v-35q-2 -13 -7.5 -25.5t-13 -23.5t-13 -17.5t-14 -15l-9.5 -9.5q63 -26 63 -84z" />
    <glyph glyph-name="four.nfra" horiz-adv-x="300" 
d="M274 331h-43v-74h-69v74h-132l-12 30l155 207h58v-176h43v-61zM162 392v85l-16 -25l-46 -60h62z" />
    <glyph glyph-name="five.nfra" horiz-adv-x="310" 
d="M262 359q0 -46 -36 -78.5t-88 -32.5q-58 0 -109 39l40 50q37 -29 64 -29q24 0 39 15.5t15 35.5t-15 35.5t-39 15.5q-21 0 -42 -14l-32 8l13 164h178v-62h-121l-3 -38q12 2 18 2q50 0 84 -32.5t34 -78.5z" />
    <glyph glyph-name="six.nfra" horiz-adv-x="335" 
d="M287 520q-95 -14 -136 -59q2 0 6 0.5t7 0.5q47 0 83.5 -29.5t36.5 -78.5q0 -44 -34.5 -75t-80.5 -31q-58 0 -89.5 37.5t-31.5 87.5q0 83 67.5 138.5t171.5 63.5v-55zM216 354q0 21 -15.5 36.5t-41.5 15.5q-23 0 -40 -8q-3 -8 -3 -24q0 -30 14 -48t40 -18q20 0 33 14
t13 32z" />
    <glyph glyph-name="seven.nfra" horiz-adv-x="274" 
d="M252 543l-130 -286h-75l120 250h-138v61h207z" />
    <glyph glyph-name="eight.nfra" horiz-adv-x="312" 
d="M264 341q0 -40 -31.5 -66.5t-76.5 -26.5t-76.5 26.5t-31.5 65.5q0 47 49 80q-44 29 -44 73q0 37 30 60.5t73 23.5q42 0 72.5 -23.5t30.5 -60.5q0 -42 -44 -71q49 -34 49 -81zM191 490q0 10 -9 18.5t-26 8.5t-26.5 -8.5t-9.5 -18.5q0 -20 37 -40q34 20 34 40zM195 344
q0 6 -6 17q-12 19 -35 32q-38 -25 -38 -49q0 -15 11 -25t29 -11q17 -1 28 10t11 26z" />
    <glyph glyph-name="nine.nfra" horiz-adv-x="335" 
d="M287 452q0 -83 -67.5 -139t-171.5 -64v56q95 14 136 58h-12q-47 0 -83 29t-36 79q0 44 33.5 75t80.5 31q58 0 89 -37.5t31 -87.5zM220 451q0 30 -14.5 48t-40.5 18q-19 0 -32.5 -14t-13.5 -32q0 -21 16 -36.5t41 -15.5q26 0 41 7q3 18 3 25z" />
    <glyph glyph-name="zero.dfra" horiz-adv-x="331" 
d="M283 155q0 -64 -30.5 -114t-86.5 -50q-57 0 -87.5 50t-30.5 114t30.5 114.5t87.5 50.5q56 0 86.5 -50.5t30.5 -114.5zM214 155q0 44 -15 72.5t-33 28.5q-19 0 -34 -28.5t-15 -72.5t15 -72.5t34 -28.5q18 0 33 28.5t15 72.5z" />
    <glyph glyph-name="one.dfra" horiz-adv-x="205" 
d="M138 0h-71v304l71 21v-325z" />
    <glyph glyph-name="two.dfra" horiz-adv-x="315" 
d="M267 0h-221v32l103 109q46 48 46 78q0 19 -11 29.5t-31 10.5q-43 0 -47 -54h-66q3 53 35.5 84.5t78.5 31.5q48 0 79.5 -28.5t31.5 -73.5q0 -48 -60 -113q-4 -5 -22.5 -22.5t-23.5 -22.5h108v-61z" />
    <glyph glyph-name="three.dfra" horiz-adv-x="297" 
d="M249 101q0 -49 -34.5 -79.5t-82.5 -30.5q-61 0 -103 42l41 48q33 -28 59 -28q20 0 34.5 13t14.5 34q0 20 -13.5 30.5t-33.5 10.5q-12 0 -32 -10l-30 39q73 39 95 78h-119v63h198v-35q-2 -13 -7.5 -25.5t-13 -23.5t-13 -17.5t-14 -15l-9.5 -9.5q63 -26 63 -84z" />
    <glyph glyph-name="four.dfra" horiz-adv-x="300" 
d="M274 74h-43v-74h-69v74h-132l-12 30l155 207h58v-176h43v-61zM162 135v85l-16 -25l-46 -60h62z" />
    <glyph glyph-name="five.dfra" horiz-adv-x="310" 
d="M262 102q0 -46 -36 -78.5t-88 -32.5q-58 0 -109 39l40 50q37 -29 64 -29q24 0 39 15.5t15 35.5t-15 35.5t-39 15.5q-21 0 -42 -14l-32 8l13 164h178v-62h-121l-3 -38q12 2 18 2q50 0 84 -32.5t34 -78.5z" />
    <glyph glyph-name="six.dfra" horiz-adv-x="335" 
d="M287 263q-95 -14 -136 -59q2 0 6 0.5t7 0.5q47 0 83.5 -29.5t36.5 -78.5q0 -44 -34.5 -75t-80.5 -31q-58 0 -89.5 37.5t-31.5 87.5q0 83 67.5 138.5t171.5 63.5v-55zM216 97q0 21 -15.5 36.5t-41.5 15.5q-23 0 -40 -8q-3 -7 -3 -24q0 -30 14 -48t40 -18q20 0 33 14t13 32
z" />
    <glyph glyph-name="seven.dfra" horiz-adv-x="274" 
d="M252 286l-130 -286h-75l120 250h-138v61h207z" />
    <glyph glyph-name="eight.dfra" horiz-adv-x="312" 
d="M264 84q0 -40 -31.5 -66.5t-76.5 -26.5t-76.5 26.5t-31.5 65.5q0 47 49 80q-44 29 -44 73q0 37 30 60.5t73 23.5q42 0 72.5 -23.5t30.5 -60.5q0 -42 -44 -71q49 -34 49 -81zM191 233q0 10 -9 18.5t-26 8.5t-26.5 -8.5t-9.5 -18.5q0 -20 37 -40q34 20 34 40zM195 87
q0 7 -6 17q-12 19 -35 32q-38 -25 -38 -49q0 -15 11 -25t29 -11q17 -1 28 10t11 26z" />
    <glyph glyph-name="nine.dfra" horiz-adv-x="335" 
d="M287 195q0 -83 -67.5 -139t-171.5 -64v56q95 14 136 58h-12q-47 0 -83 29t-36 79q0 44 33.5 75t80.5 31q58 0 89 -37.5t31 -87.5zM220 194q0 30 -14.5 48t-40.5 18q-19 0 -32.5 -14t-13.5 -32q0 -21 16 -36.5t41 -15.5q26 0 41 7q3 18 3 25z" />
    <glyph glyph-name="orn.001" 
d="M205 424l65 65l65 -65l-65 -65zM345 284l65 65l65 -65l-65 -65zM205 284l65 65l65 -65l-65 -65zM65 284l65 65l65 -65l-65 -65zM205 144l65 65l65 -65l-65 -65z" />
    <glyph glyph-name="orn.002" 
d="M323 337v92h92v-92h-92zM125 337v92h92v-92h-92zM224 238v92h92v-92h-92zM323 139v92h92v-92h-92zM125 139v92h92v-92h-92z" />
    <glyph glyph-name="orn.003" horiz-adv-x="420" 
d="M275 365l-65 -65l-65 65l65 65zM355 285l-65 -65l-65 65l65 65zM194 285l-65 -65l-65 65l65 65zM275 205l-65 -65l-65 65l65 65z" />
    <glyph glyph-name="orn.004" 
d="M344 423l65 -65l-65 -65l-65 65zM130 358l65 65l65 -65l-65 -65zM279 209l65 65l65 -65l-65 -65zM195 274l65 -65l-65 -65l-65 65z" />
    <glyph glyph-name="orn.005" 
d="M224 435h91v-92h-91v92zM329 238v91h92v-91h-92zM118 238v91h92v-91h-92zM224 224h91v-92h-91v92z" />
    <glyph glyph-name="orn.006" 
d="M335 425l-65 -65l-65 65l65 65zM342 356v62h62v-62h-62zM198 356h-62v62h62v-62zM411 219l-65 65l65 65l65 -65zM129 349l65 -65l-65 -65l-65 65zM342 212h62v-62h-62v62zM198 212v-62h-62v62h62zM205 143l65 65l65 -65l-65 -65z" />
    <glyph glyph-name="orn.007" 
d="M270 386l-44 44l44 44l44 -44zM416 338h-92v92h92v-92zM216 430v-92h-92v92h92zM372 284l44 44l44 -44l-44 -44zM168 284l-44 -44l-44 44l44 44zM324 138v92h92v-92h-92zM124 230h92v-92h-92v92zM270 182l44 -44l-44 -44l-44 44z" />
    <glyph glyph-name="orn.008" 
d="M346 405l-76 -75l-76 75l76 76zM467 284l-76 -76l-75 76l75 76zM313 284l-43 -43l-43 43l43 43zM224 284l-75 -76l-76 76l76 76zM346 163l-76 -76l-76 76l76 75z" />
    <glyph glyph-name="orn.009" 
d="M410 424v-107h-107v107h107zM237 424v-107h-107v107h107zM300 314v-60h-60v60h60zM410 251v-107h-107v107h107zM237 251v-107h-107v107h107z" />
    <glyph glyph-name="orn.010" 
d="M316 447l-46 -46l-46 46l46 45zM478 284l-45 -46l-46 46l46 46zM385 284l-115 -115l-115 115l115 115zM153 284l-46 -46l-45 46l45 46zM316 121l-46 -45l-46 45l46 46z" />
    <glyph glyph-name="orn.011" 
d="M353 432h65v-65h-65v65zM122 432h65v-65h-65v65zM189 365h162v-162h-162v162zM353 201h65v-65h-65v65zM122 201h65v-65h-65v65z" />
    <glyph glyph-name="orn.012" 
d="M249 519h42v-43h-42v43zM413 427v-75h-75v75h75zM202 427v-75h-75v75h75zM505 305v-42h-43v42h43zM336 350v-132h-132v132h132zM35 263v42h43v-42h-43zM413 216v-75h-75v75h75zM202 216v-75h-75v75h75zM291 49h-42v43h42v-43z" />
    <glyph glyph-name="orn.013" 
d="M421 465l30 -30l-30 -30l-30 30zM89 435l30 30l30 -30l-30 -30zM323 433l-53 -53l-53 53l53 53zM472 284l-53 -53l-53 53l53 53zM363 284l-93 -93l-93 93l93 93zM174 284l-53 -53l-53 53l53 53zM323 135l-53 -53l-53 53l53 53zM451 133l-30 -30l-30 30l30 30zM119 103
l-30 30l30 30l30 -30z" />
    <glyph glyph-name="orn.014" 
d="M348 474l112 -112h-112v112zM192 474v-112h-112zM214 340h112v-112h-112v112zM348 206h112l-112 -112v112zM80 206h112v-112z" />
    <glyph glyph-name="orn.015" 
d="M349 473l-79 -79l-79 79h158zM459 363v-158l-79 79zM270 363l79 -79l-79 -79l-79 79zM81 363l79 -79l-79 -79v158zM270 174l79 -79h-158z" />
    <glyph glyph-name="orn.016" 
d="M335 424h-130l65 65zM475 284l-65 -65v130zM392 284l-122 -122l-122 122l122 122zM130 219l-65 65l65 65v-130zM335 144l-65 -65l-65 65h130z" />
    <glyph glyph-name="orn.017" 
d="M415 429v-92l-92 92h92zM217 429l-92 -92v92h92zM356 370v-172h-172v172h172zM415 231v-92h-92zM217 139h-92v92z" />
    <glyph glyph-name="orn.018" 
d="M331 430l-1 -121l-121 121l61 60zM416 223l-121 1l121 121l60 -61zM124 345l121 -1l-121 -121l-60 61zM209 138l1 121l121 -121l-61 -60z" />
    <glyph glyph-name="orn.019" 
d="M210 430l85 -86h-171v86h86zM416 344l-86 -85v171h86v-86zM124 224l86 85v-171h-86v86zM330 138l-85 86h171v-86h-86z" />
    <glyph glyph-name="orn.020" 
d="M416 430v-65l-115 -50l50 115h65zM189 430l50 -115l-115 50v65h65zM270 345l61 -61l-61 -61l-61 61zM416 203v-65h-65l-50 115zM239 253l-50 -115h-65v65z" />
    <glyph glyph-name="orn.021" 
d="M316 445l-46 -117l-46 117l46 45zM476 284l-45 -46l-117 46l117 46zM313 327v-86h-86v86h86zM226 284l-117 -46l-45 46l45 46zM316 123l-46 -45l-46 45l46 117z" />
    <glyph glyph-name="orn.022" 
d="M270 286l81 145h67v-67l-145 -81l145 -81v-67h-67l-81 145l-81 -145h-67v67l145 81l-145 81v67h67z" />
    <glyph glyph-name="orn.023" 
d="M272 285l160 45l47 -47l-47 -47l-160 45l45 -160l-47 -47l-47 47l45 160l-160 -45l-47 47l47 47l160 -45l-45 160l47 47l47 -47z" />
    <glyph glyph-name="orn.024" 
d="M230 176l-107 -40l40 107l104 40l-104 40l-40 107l107 -40l40 -104l40 104l107 40l-40 -107l-104 -40l104 -40l40 -107l-107 40l-40 104z" />
    <glyph glyph-name="orn.025" 
d="M223 387l47 104l47 -104l-45 -102l102 45l104 -47l-104 -47l-102 45l45 -102l-47 -104l-47 104l45 102l-102 -45l-104 47l104 47l102 -45z" />
    <glyph glyph-name="orn.026" 
d="M308 408l-38 -110l-38 110l38 82zM416 430l-31 -85l-81 -27l27 81zM236 318l-81 27l-31 85l85 -31zM476 284l-82 -38l-110 38l110 38zM256 284l-110 -38l-82 38l82 38zM416 138l-85 31l-27 81l81 -27zM236 250l-27 -81l-85 -31l31 85zM308 160l-38 -82l-38 82l38 110z
" />
    <glyph glyph-name="orn.027" 
d="M396 284l36 35l35 -35l-35 -35zM318 284l36 146l35 -146l-35 -146zM270 529l41 -245l-41 -245l-41 245zM186 430l36 -146l-36 -146l-35 146zM108 319l36 -35l-36 -35l-35 35z" />
    <glyph glyph-name="orn.028" 
d="M270 410l-35 36l35 35l35 -35zM270 332l-146 36l146 35l146 -35zM270 325l245 -41l-245 -41l-245 41zM270 236l146 -36l-146 -35l-146 35zM270 158l35 -36l-35 -35l-35 35z" />
    <glyph glyph-name="orn.029" 
d="M296 474l-26 -26l-26 26l26 26zM314 402l-44 -43l-44 43l44 44zM486 284l-26 -26l-26 26l26 26zM432 284l-44 -44l-43 44l43 44zM343 284l-73 -73l-73 73l73 73zM195 284l-43 -44l-44 44l44 44zM106 284l-26 -26l-26 26l26 26zM314 166l-44 -44l-44 44l44 43zM296 94
l-26 -26l-26 26l26 26z" />
    <glyph glyph-name="orn.030" 
d="M424 401h-37v37h37v-37zM153 438v-37h-37v37h37zM386 337h-63v63h63v-63zM217 400v-63h-63v63h63zM322 336v-104h-104v104h104zM323 168v63h63v-63h-63zM154 231h63v-63h-63v63zM387 130v37h37v-37h-37zM116 167h37v-37h-37v37z" />
    <glyph glyph-name="commaaccent" horiz-adv-x="333" 
d="M136 -39h97q-5 -41 -30 -88.5t-53 -75.5h-51q37 86 37 164z" />
    <glyph glyph-name="acute.cap" horiz-adv-x="333" 
d="M247 769l-99 -153h-62l56 153h105z" />
    <glyph glyph-name="breve.cap" horiz-adv-x="333" 
d="M300 760q0 -60 -39.5 -97.5t-93.5 -37.5q-55 0 -94.5 37.5t-39.5 97.5h70q0 -32 18.5 -52t44.5 -20q27 0 45.5 20t18.5 52h70z" />
    <glyph glyph-name="caron.cap" horiz-adv-x="333" 
d="M291 769l-106 -153h-37l-106 153h78l46 -84l47 84h78z" />
    <glyph glyph-name="cedilla.cap" horiz-adv-x="333" 
d="M192 1l-10 -32q27 -3 42 -24t15 -52q0 -40 -29 -64.5t-68 -24.5q-30 0 -48 10v66q12 -9 36 -9q14 0 23.5 7.5t9.5 20.5t-10 21t-23 8q-14 0 -27 -5l21 78h68z" />
    <glyph glyph-name="circumflex.cap" horiz-adv-x="333" 
d="M287 616h-58l-63 91l-62 -91h-58l85 154h71z" />
    <glyph glyph-name="commaaccent.cap" horiz-adv-x="333" 
d="M136 -49h97q-5 -41 -30 -88.5t-53 -75.5h-51q37 86 37 164z" />
    <glyph glyph-name="dieresis.cap" horiz-adv-x="333" 
d="M317 699l-66 -65l-65 65l65 66zM147 699l-65 -65l-66 65l66 66z" />
    <glyph glyph-name="dotaccent.cap" horiz-adv-x="333" 
d="M232 699l-65 -65l-66 65l65 66z" />
    <glyph glyph-name="grave.cap" horiz-adv-x="333" 
d="M185 616l-99 153h105l56 -153h-62z" />
    <glyph glyph-name="hungarumlaut.cap" horiz-adv-x="333" 
d="M185 769l-111 -153h-58l73 153h96zM317 769l-111 -153h-58l73 153h96z" />
    <glyph glyph-name="macron.cap" horiz-adv-x="333" 
d="M313 652h-293v70h293v-70z" />
    <glyph glyph-name="ogonek.cap" horiz-adv-x="333" 
d="M246 -111v-72q-20 -13 -54 -13q-48 0 -76.5 27.5t-28.5 73.5q0 39 25 74t64 49l65 -28q-31 -10 -50 -33.5t-19 -48.5q0 -18 10.5 -27.5t27.5 -9.5q18 0 36 8z" />
    <glyph glyph-name="ring.cap" horiz-adv-x="333" 
d="M262 707q0 -37 -28 -63t-67 -26q-40 0 -68 25.5t-28 62.5t28 63.5t68 26.5q39 0 67 -26t28 -63zM209 707q0 17 -12.5 28.5t-29.5 11.5t-29.5 -11.5t-12.5 -28.5t12.5 -28.5t29.5 -11.5t29.5 11.5t12.5 28.5z" />
    <glyph glyph-name="tilde.cap" horiz-adv-x="333" 
d="M313 737q-3 -42 -27 -70t-63 -28q-26 0 -56.5 15.5t-43.5 15.5q-28 0 -31 -30h-72q3 43 25.5 70.5t64.5 27.5q23 0 55.5 -15.5t47.5 -15.5q11 0 19.5 8t8.5 22h72z" />
    <glyph glyph-name="zero.onum" horiz-adv-x="586" 
d="M536 230q0 -103 -71 -173.5t-172 -70.5t-172 70.5t-71 173.5t71 173.5t172 70.5t172 -70.5t71 -173.5zM430 230q0 62 -39.5 104.5t-97.5 42.5t-98 -42.5t-40 -104.5t40 -104.5t98 -42.5t97.5 42.5t39.5 104.5z" />
    <glyph glyph-name="one.onum" horiz-adv-x="268" 
d="M188 0h-108v457h108v-457z" />
    <glyph glyph-name="two.onum" horiz-adv-x="477" 
d="M422 316q0 -57 -36 -98.5t-99 -84.5l-53 -36h181v-97h-375v44l174 136q38 30 53.5 43.5t31 35t15.5 40.5q0 36 -21 56t-59 20q-41 0 -65.5 -30t-24.5 -72h-98q0 78 57.5 139.5t139.5 61.5q80 0 129.5 -41.5t49.5 -116.5z" />
    <glyph glyph-name="three.onum" horiz-adv-x="443" 
d="M393 71q0 -88 -60.5 -143t-143.5 -55q-105 0 -174 69l62 77q1 -1 8.5 -7t13 -10.5t16 -11t20 -10.5t23 -7t27.5 -3q40 0 69.5 27t29.5 73q0 40 -26.5 63t-63.5 23q-18 0 -61 -17l-43 59q64 35 107.5 71.5t67.5 89.5h-225v98h342v-55q-15 -103 -93 -176q43 -20 73.5 -57.5
t30.5 -97.5z" />
    <glyph glyph-name="four.onum" horiz-adv-x="467" 
d="M447 29h-80v-140h-107v140h-232l-18 46l268 382h89v-334h80v-94zM260 123v194l-47 -73l-83 -121h130z" />
    <glyph glyph-name="five.onum" horiz-adv-x="461" 
d="M411 72q0 -83 -63 -141.5t-152 -58.5q-90 0 -168 53q-16 12 -18 14l61 77l17 -13q51 -37 98 -37q48 0 78.5 32.5t30.5 73.5t-31 74t-78 33q-41 0 -80 -26l-43 11l20 293h306v-96h-220l-7 -95q23 5 44 5q88 0 146.5 -58t58.5 -141z" />
    <glyph glyph-name="six.onum" horiz-adv-x="517" 
d="M467 497q-187 -30 -264 -135q37 5 48 5q82 0 145 -52.5t63 -140.5q0 -79 -59 -135t-140 -56q-101 0 -155.5 67.5t-54.5 158.5q0 151 118.5 254.5t298.5 117.5v-84zM358 174q0 43 -32 75.5t-84 32.5q-45 0 -82 -17q-7 -21 -7 -54q0 -60 28.5 -98t81.5 -38q40 0 67.5 30
t27.5 69z" />
    <glyph glyph-name="seven.onum" horiz-adv-x="427" 
d="M405 419l-233 -530h-114l217 474h-257v94h363z" />
    <glyph glyph-name="eight.onum" horiz-adv-x="473" 
d="M423 148q0 -70 -54.5 -117.5t-132.5 -47.5t-132 47t-54 116q0 89 98 152q-90 57 -90 138q0 64 52.5 106.5t126.5 42.5t126 -42t52 -106q0 -79 -89 -136q97 -63 97 -153zM311 429q0 25 -19.5 43.5t-55.5 18.5q-35 0 -54.5 -18t-19.5 -41q0 -43 78 -90q71 47 71 87z
M319 153q0 19 -12 39q-22 37 -73 68q-79 -51 -79 -105q0 -32 22.5 -55t59.5 -23q36 0 59 22.5t23 53.5z" />
    <glyph glyph-name="nine.onum" horiz-adv-x="517" 
d="M467 248q0 -151 -118.5 -254.5t-298.5 -117.5v84q187 30 264 135q-38 -5 -48 -5q-82 0 -145 52.5t-63 140.5q0 79 59 135t140 56q101 0 155.5 -67.5t54.5 -158.5zM364 246q0 60 -28.5 98t-81.5 38q-40 0 -67.5 -30t-27.5 -69q0 -43 32 -75.5t84 -32.5q45 0 82 17
q7 21 7 54z" />
    <glyph glyph-name="zero.tnum" horiz-adv-x="510" 
d="M459 283q0 -74 -21 -140.5t-69 -113t-113 -46.5q-66 0 -114 46.5t-69.5 113t-21.5 140.5t21.5 141t69.5 114t114 47q65 0 113 -47t69 -114t21 -141zM354 283q0 86 -28.5 144t-69.5 58t-70.5 -58.5t-29.5 -143.5t29.5 -143t70.5 -58t69.5 57.5t28.5 143.5z" />
    <glyph glyph-name="one.tnum" horiz-adv-x="510" 
d="M309 0h-108v557l108 32v-589z" />
    <glyph glyph-name="two.tnum" horiz-adv-x="510" 
d="M441 0h-383v46l186 203q88 95 88 154q0 40 -24.5 64t-64.5 24q-39 0 -65.5 -26t-30.5 -76h-98q4 89 60 143.5t135 54.5q84 0 139 -51t55 -133q0 -91 -108 -206q-64 -68 -101 -103h212v-94z" />
    <glyph glyph-name="three.tnum" horiz-adv-x="510" 
d="M429 182q0 -88 -60.5 -143t-143.5 -55q-105 0 -174 69l62 77q1 -1 8.5 -7t13 -10.5t16 -11t20 -10.5t23 -7t27.5 -3q40 0 69.5 27t29.5 73q0 40 -26.5 63t-63.5 23q-18 0 -61 -17l-43 59q64 35 107.5 71.5t67.5 89.5h-225v98h342v-55q-15 -103 -93 -176
q43 -20 73.5 -57.5t30.5 -97.5z" />
    <glyph glyph-name="four.tnum" horiz-adv-x="510" 
d="M468 140h-80v-140h-107v140h-232l-18 46l268 382h89v-334h80v-94zM281 234v194l-47 -73l-83 -121h130z" />
    <glyph glyph-name="five.tnum" horiz-adv-x="510" 
d="M438 183q0 -83 -63 -141.5t-152 -58.5q-90 0 -168 53q-16 12 -18 14l61 77l17 -13q51 -37 98 -37q48 0 78.5 32.5t30.5 73.5t-31 74t-78 33q-41 0 -80 -26l-43 11l20 293h306v-96h-220l-7 -95q23 5 44 5q88 0 146.5 -58t58.5 -141z" />
    <glyph glyph-name="six.tnum" horiz-adv-x="510" 
d="M464 497q-187 -30 -264 -135q38 5 48 5q82 0 145 -52.5t63 -140.5q0 -79 -59 -135t-140 -56q-101 0 -155.5 67.5t-54.5 158.5q0 151 118.5 254.5t298.5 117.5v-84zM355 174q0 43 -32 75.5t-84 32.5q-45 0 -82 -17q-7 -21 -7 -54q0 -60 28.5 -98t81.5 -38q40 0 67.5 30
t27.5 69z" />
    <glyph glyph-name="seven.tnum" horiz-adv-x="510" 
d="M448 530l-233 -530h-114l217 474h-257v94h363z" />
    <glyph glyph-name="eight.tnum" horiz-adv-x="510" 
d="M441 148q0 -70 -54.5 -117.5t-132.5 -47.5t-132 47t-54 116q0 89 98 152q-90 57 -90 138q0 64 52.5 106.5t126.5 42.5t126 -42t52 -106q0 -79 -89 -136q97 -63 97 -153zM329 429q0 25 -19.5 43.5t-55.5 18.5q-35 0 -54.5 -18t-19.5 -41q0 -43 78 -90q71 47 71 87z
M337 153q0 28 -24 56.5t-61 50.5q-79 -51 -79 -105q0 -32 22.5 -55t59.5 -23q36 0 59 22.5t23 53.5z" />
    <glyph glyph-name="nine.tnum" horiz-adv-x="510" 
d="M464 359q0 -151 -118.5 -254.5t-298.5 -117.5v84q187 30 264 135q-37 -5 -48 -5q-82 0 -145 52.5t-63 140.5q0 79 59 135t140 56q101 0 155.5 -67.5t54.5 -158.5zM361 357q0 60 -28.5 98t-81.5 38q-40 0 -67.5 -30t-27.5 -69q0 -43 32 -75.5t84 -32.5q45 0 82 17
q7 21 7 54z" />
    </font>
</defs>
</svg>
